<?xml version="1.0" standalone="no"?>
<!DOCTYPE svg PUBLIC "-//W3C//DTD SVG 20010904//EN"
 "http://www.w3.org/TR/2001/REC-SVG-20010904/DTD/svg10.dtd">
<svg version="1.0" xmlns="http://www.w3.org/2000/svg"
 width="630.000000pt" height="630.000000pt" viewBox="0 0 630.000000 630.000000"
 preserveAspectRatio="xMidYMid meet">
<metadata>
Created by potrace 1.11, written by Peter Selinger 2001-2013
</metadata>
<g transform="translate(0.000000,630.000000) scale(0.100000,-0.100000)"
fill="#000000" stroke="none">
<path d="M1880 5685 c0 -23 -3 -25 -50 -25 -47 0 -50 -2 -50 -25 0 -21 -5 -25
-30 -25 -25 0 -30 4 -30 25 0 23 -3 25 -50 25 -47 0 -50 -2 -50 -25 0 -20 -5
-25 -24 -25 -28 0 -36 -16 -36 -71 0 -35 -3 -39 -25 -39 -20 0 -25 5 -25 25 0
25 -1 25 -80 25 -79 0 -80 0 -80 -25 0 -20 -5 -25 -25 -25 -25 0 -25 -1 -25
-80 0 -79 0 -80 -25 -80 -20 0 -25 -5 -25 -25 0 -20 -5 -25 -25 -25 -20 0 -25
-5 -25 -24 0 -19 -6 -25 -27 -28 -16 -2 -28 -9 -27 -15 1 -7 2 -42 3 -78 1
-63 2 -65 27 -65 24 0 25 -2 22 -52 -3 -47 -6 -53 -28 -58 -24 -5 -25 -8 -25
-75 0 -67 1 -70 25 -75 18 -4 26 -13 28 -33 3 -21 9 -27 28 -27 19 0 24 -5 24
-25 0 -20 -5 -25 -25 -25 -24 0 -25 -3 -25 -55 0 -30 3 -54 8 -54 29 5 42 -3
42 -26 0 -20 5 -25 25 -25 20 0 25 -5 25 -25 0 -20 5 -25 25 -25 34 0 37 -47
3 -52 -20 -3 -23 -10 -26 -55 -3 -51 -2 -53 22 -53 21 0 26 -5 26 -25 0 -24 3
-25 55 -25 54 0 55 0 55 -30 0 -25 -4 -30 -25 -30 -23 0 -25 -3 -25 -50 l0
-50 50 0 c47 0 50 -2 50 -25 0 -20 5 -25 23 -25 31 0 35 -5 29 -35 -3 -18 -11
-25 -28 -25 -22 0 -24 -4 -24 -50 l0 -50 105 0 105 0 0 -30 c0 -25 -4 -30 -25
-30 -23 0 -25 -3 -25 -50 0 -46 -2 -50 -24 -50 -23 0 -25 -4 -28 -52 -3 -48
-5 -53 -30 -58 l-27 -5 0 -125 1 -125 -26 -3 c-20 -3 -26 -9 -26 -28 0 -19 -5
-24 -25 -24 -21 0 -25 -5 -25 -30 0 -25 -4 -30 -25 -30 -20 0 -25 -5 -25 -25
0 -21 -5 -25 -30 -25 -29 0 -30 -1 -30 -50 0 -47 -2 -50 -25 -50 -24 0 -25 -3
-25 -55 0 -52 -1 -55 -24 -55 -23 0 -25 -4 -28 -52 -3 -46 -6 -53 -25 -56 -23
-3 -23 -4 -23 -183 l0 -179 25 0 c24 0 25 -3 25 -55 0 -52 1 -55 25 -55 23 0
25 -3 25 -50 0 -47 2 -50 25 -50 24 0 25 -3 25 -55 0 -54 0 -55 30 -55 25 0
30 -4 30 -25 0 -20 5 -25 25 -25 21 0 25 -5 25 -30 0 -25 4 -30 25 -30 20 0
25 -5 25 -25 0 -21 5 -25 28 -25 23 0 28 -4 28 -22 -1 -18 5 -24 27 -26 l27
-3 0 -105 0 -104 25 0 25 0 0 -105 0 -105 25 0 c24 0 25 -3 25 -55 0 -54 0
-55 30 -55 29 0 30 -1 30 -49 0 -44 3 -50 23 -53 16 -2 23 -11 25 -31 3 -21 9
-27 28 -27 19 0 24 -5 24 -25 0 -24 3 -25 55 -25 52 0 55 -1 55 -25 0 -23 3
-24 78 -27 76 -3 77 -3 80 -31 3 -21 9 -27 28 -27 19 0 24 -5 24 -25 0 -23 3
-25 50 -25 47 0 50 -2 50 -25 0 -21 5 -25 30 -25 25 0 30 -4 30 -25 0 -20 5
-25 25 -25 24 0 25 -3 25 -55 0 -52 1 -55 25 -55 20 0 25 -5 25 -25 0 -20 5
-25 24 -25 19 0 25 -6 28 -27 2 -22 9 -29 31 -31 21 -3 27 -9 27 -28 0 -19 5
-24 25 -24 20 0 25 -5 25 -25 0 -24 3 -25 55 -25 52 0 55 -1 55 -25 0 -23 3
-25 50 -25 49 0 50 -1 50 -30 l0 -30 314 0 315 0 3 28 c3 25 7 27 56 30 48 3
52 5 52 28 0 22 4 24 50 24 46 0 50 2 50 24 0 19 6 25 28 28 19 2 28 9 30 25
3 17 10 23 28 23 20 0 24 5 24 30 0 25 4 30 25 30 20 0 25 5 25 25 0 20 5 25
24 25 23 0 25 4 28 53 3 48 5 52 31 55 21 3 27 9 27 28 0 19 5 24 25 24 20 0
25 5 25 24 0 23 4 25 53 28 45 3 52 6 55 26 3 16 10 22 28 22 20 0 24 5 24 30
l0 30 80 0 c79 0 80 0 80 25 0 23 3 25 50 25 46 0 50 2 50 24 0 19 6 25 28 28
21 2 28 9 30 31 3 21 9 27 28 27 22 0 24 4 24 50 0 47 2 50 25 50 24 0 25 3
25 55 0 52 1 55 25 55 24 0 24 1 27 103 l3 102 28 3 27 3 0 105 0 104 25 0
c20 0 25 5 25 25 0 20 5 25 25 25 20 0 25 5 25 25 0 20 5 25 24 25 19 0 25 6
28 28 2 21 9 28 31 30 21 3 27 9 27 28 0 19 5 24 24 24 23 0 25 4 28 52 3 46
6 53 26 56 19 3 22 9 22 52 0 46 2 49 28 52 25 3 27 7 30 55 3 49 5 53 28 53
l24 0 0 180 0 180 -25 0 c-24 0 -25 3 -25 55 0 54 0 55 -30 55 -30 0 -30 1
-30 55 0 52 -1 55 -25 55 -23 0 -25 3 -25 50 0 47 -2 50 -25 50 -20 0 -25 5
-25 24 0 19 -6 25 -27 28 -22 2 -29 9 -31 31 -3 21 -9 27 -28 27 -19 0 -24 5
-24 25 0 20 -5 25 -25 25 l-25 0 0 130 0 130 -25 0 c-24 0 -25 3 -25 55 0 54
0 55 -30 55 -29 0 -30 1 -30 49 0 44 -3 50 -22 53 -17 2 -24 11 -26 31 l-3 27
105 0 106 0 0 50 c0 47 -2 50 -25 50 -21 0 -25 5 -25 30 0 25 4 30 25 30 20 0
25 5 25 25 0 24 3 25 55 25 l55 0 0 49 c0 47 -2 50 -27 53 -22 2 -28 8 -28 28
0 23 4 25 53 28 48 3 52 5 52 28 0 19 5 24 25 24 24 0 25 3 25 55 0 52 -1 55
-25 55 -20 0 -25 5 -25 25 0 20 5 25 25 25 20 0 25 5 25 24 0 19 6 25 27 28
20 2 29 10 33 28 3 14 11 25 18 26 6 1 17 2 22 3 6 0 10 24 10 51 0 47 -2 50
-25 50 -20 0 -25 5 -25 25 0 20 5 25 25 25 21 0 25 5 25 30 0 25 4 30 25 30
14 0 25 6 26 13 6 139 6 137 -23 137 -27 0 -28 2 -28 55 0 52 1 55 25 55 23 0
25 4 26 50 3 110 3 110 -26 110 -20 0 -25 5 -25 25 0 20 -5 25 -25 25 -20 0
-25 5 -25 25 0 21 -5 25 -30 25 l-30 0 0 80 c0 79 0 80 -25 80 -20 0 -25 5
-25 25 0 25 -1 25 -80 25 -79 0 -80 0 -80 -25 0 -20 -5 -25 -25 -25 -24 0 -25
3 -25 55 0 52 -1 55 -25 55 -20 0 -25 5 -25 25 0 24 -3 25 -55 25 -52 0 -55
-1 -55 -25 0 -20 -5 -25 -25 -25 -20 0 -25 5 -25 25 0 24 -3 25 -55 25 -52 0
-55 1 -55 25 0 23 -3 25 -50 25 -47 0 -50 -2 -50 -25 0 -20 -5 -25 -25 -25
-20 0 -25 -5 -25 -25 0 -24 -3 -25 -55 -25 -52 0 -55 1 -55 25 0 20 -5 25 -25
25 -20 0 -25 5 -25 25 0 24 -3 25 -55 25 -52 0 -55 -1 -55 -25 0 -20 -5 -25
-25 -25 -20 0 -25 -5 -25 -25 0 -21 -5 -25 -30 -25 -25 0 -30 4 -30 25 0 23
-3 25 -50 25 -47 0 -50 -2 -50 -25 0 -20 -5 -25 -24 -25 -19 0 -25 -6 -28 -27
-2 -22 -8 -28 -28 -28 -20 0 -26 6 -28 28 -3 25 -6 27 -53 27 -48 0 -49 -1
-49 -30 0 -25 -4 -30 -25 -30 -20 0 -25 -5 -25 -25 0 -21 -5 -25 -30 -25 -25
0 -30 4 -30 25 0 23 -3 25 -50 25 l-50 0 0 -50 c0 -46 -2 -50 -24 -50 -23 0
-25 -4 -28 -52 -3 -49 -5 -53 -30 -56 -26 -3 -28 -6 -28 -53 0 -46 -2 -49 -25
-49 -21 0 -25 -5 -25 -31 l0 -30 -52 3 c-49 3 -53 5 -56 31 -3 21 -9 27 -28
27 -22 0 -24 4 -24 50 0 47 -2 50 -25 50 -24 0 -25 3 -25 54 0 52 -1 55 -27
58 -26 3 -27 6 -27 51 l1 47 -54 0 c-50 0 -53 -1 -53 -25 0 -20 -5 -25 -25
-25 -20 0 -25 5 -25 24 0 19 -6 25 -27 28 -22 2 -29 9 -31 31 -3 25 -6 27 -53
27 -48 0 -49 -1 -49 -30 0 -25 -4 -30 -24 -30 -19 0 -25 6 -28 28 -2 21 -9 28
-30 30 -22 3 -28 9 -28 28 0 22 -4 24 -50 24 -47 0 -50 -2 -50 -25 0 -21 -5
-25 -30 -25 -25 0 -30 4 -30 25 0 20 -5 25 -25 25 -20 0 -25 5 -25 25 0 23 -3
25 -50 25 -47 0 -50 -2 -50 -25 0 -20 -5 -25 -25 -25 -20 0 -25 -5 -25 -25 0
-24 -3 -25 -55 -25 -52 0 -55 1 -55 25 0 20 -5 25 -25 25 -20 0 -25 5 -25 25
0 24 -3 25 -55 25 -52 0 -55 -1 -55 -25z m100 -160 c0 -21 5 -25 28 -25 24 0
28 -4 27 -27 0 -23 5 -29 28 -31 21 -3 27 -9 27 -28 0 -23 2 -24 79 -24 l79 0
4 30 c4 27 2 30 -24 30 -27 0 -28 2 -28 50 l0 50 50 0 c47 0 50 -2 50 -25 0
-20 5 -25 24 -25 19 0 25 -6 28 -27 2 -20 9 -28 23 -28 14 0 21 -8 23 -28 3
-25 7 -28 35 -25 31 3 32 5 35 56 3 44 6 52 23 52 14 0 19 -7 19 -30 0 -25 4
-30 25 -30 23 0 25 -3 25 -50 0 -47 2 -50 25 -50 14 0 26 -6 26 -12 1 -7 2
-20 3 -27 1 -10 12 -15 31 -15 29 0 30 1 33 52 3 44 6 52 23 52 14 0 19 -7 19
-25 0 -20 5 -25 24 -25 23 0 25 -4 28 -52 3 -51 4 -53 33 -53 25 0 30 4 30 25
0 18 6 26 23 28 19 3 22 -1 22 -27 0 -26 4 -31 24 -31 23 0 25 -4 28 -52 3
-48 5 -53 24 -50 21 3 22 -2 29 -110 3 -62 5 -156 3 -208 l-3 -95 -27 -3 c-26
-3 -28 -6 -28 -53 l0 -49 -49 0 c-47 0 -50 -2 -53 -27 -3 -28 -4 -28 -73 -28
-66 0 -69 1 -75 25 -4 18 -14 26 -33 28 -21 3 -27 9 -27 28 0 19 -5 24 -25 24
-20 0 -25 5 -25 25 0 20 -5 25 -24 25 -19 0 -25 6 -28 28 -3 25 -7 27 -55 30
-49 3 -53 5 -53 28 0 19 -5 24 -25 24 -20 0 -25 5 -25 25 0 20 -5 25 -24 25
-19 0 -25 6 -28 28 -2 21 -9 28 -31 30 -22 3 -27 8 -25 25 3 20 -2 22 -49 25
-49 3 -53 5 -53 28 0 23 -3 24 -55 24 -52 0 -55 1 -55 25 0 23 -3 25 -49 25
-47 0 -50 2 -53 28 -3 25 -7 27 -55 30 -49 3 -53 5 -53 28 0 24 -2 24 -83 24
l-84 0 3 -27 c1 -16 2 -30 3 -33 1 -3 23 -3 50 -2 48 4 50 3 53 -25 3 -26 6
-28 53 -29 47 0 50 -2 53 -27 3 -25 7 -27 52 -27 46 0 49 -2 52 -27 2 -23 7
-27 26 -25 18 3 22 -2 22 -22 0 -22 4 -26 30 -26 27 0 30 -3 30 -30 0 -29 1
-30 49 -30 44 0 50 -3 53 -22 2 -17 11 -24 31 -26 21 -3 27 -9 27 -28 0 -19 5
-24 25 -24 20 0 25 -5 25 -25 0 -20 5 -25 24 -25 19 0 25 -6 28 -27 2 -20 10
-29 28 -33 14 -3 25 -11 26 -17 2 -30 5 -33 29 -33 20 0 25 -5 25 -25 0 -20 5
-25 25 -25 20 0 25 -5 25 -25 0 -20 5 -25 25 -25 l25 0 0 -105 0 -105 -25 0
c-20 0 -25 -5 -25 -25 0 -20 -5 -25 -25 -25 -21 0 -25 -5 -25 -30 0 -25 -4
-30 -25 -30 -20 0 -25 -5 -25 -25 0 -25 -1 -25 -80 -25 -79 0 -80 0 -80 -25 0
-25 -1 -25 -80 -25 -79 0 -80 0 -80 -25 l0 -25 -155 0 c-148 0 -155 1 -155 20
0 15 7 20 25 20 21 0 25 5 25 30 0 25 4 30 25 30 21 0 25 5 25 30 l0 30 -155
0 c-148 0 -155 1 -155 20 0 15 7 20 25 20 20 0 25 5 25 25 0 20 5 25 25 25 22
0 25 4 25 33 0 33 0 33 -47 33 -45 -1 -48 1 -51 27 -3 26 -6 27 -58 27 -47 0
-54 3 -54 19 0 14 8 21 28 23 19 2 28 9 30 25 2 14 11 23 25 25 17 2 22 10 22
33 l0 30 -77 3 c-75 3 -78 4 -78 27 0 20 -5 25 -25 25 -18 0 -25 5 -25 20 0
17 7 20 50 20 l50 0 0 60 c0 57 -1 60 -25 60 -20 0 -25 5 -25 25 0 20 -5 25
-25 25 -20 0 -25 5 -25 25 0 21 -5 25 -30 25 -25 0 -29 3 -26 23 3 20 9 22 79
25 l77 3 0 29 c0 25 -4 30 -25 30 -20 0 -25 5 -25 25 0 20 -5 25 -25 25 -20 0
-25 5 -25 24 0 19 -6 25 -27 28 -20 2 -28 9 -28 23 0 18 8 20 78 23 74 3 77 4
77 27 0 18 6 24 28 27 21 2 28 9 30 31 3 24 0 27 -28 27 -28 0 -31 3 -28 28 3
23 -1 27 -22 27 -23 0 -25 4 -28 48 l-3 47 75 0 c75 0 76 0 76 -25 0 -25 2
-26 57 -23 l56 3 -2 78 -2 77 50 0 c47 0 50 -2 53 -27 2 -20 9 -29 25 -31 14
-2 23 -11 25 -25 3 -19 10 -22 61 -25 l57 -3 0 31 c0 25 -4 30 -24 30 -27 0
-34 21 -27 73 3 25 7 27 47 27 40 0 44 -2 44 -25z m2110 -25 c0 -47 -2 -50
-25 -50 -21 0 -25 -5 -25 -30 l0 -31 83 3 c76 3 82 5 85 25 2 14 11 23 25 25
16 2 23 11 25 31 3 21 9 27 28 27 19 0 24 5 24 25 0 23 3 25 50 25 l50 0 0
-50 c0 -47 -2 -50 -25 -50 -21 0 -25 -5 -25 -30 0 -30 1 -30 55 -30 52 0 55 2
55 24 0 19 6 25 28 28 23 3 27 7 24 31 -3 26 -2 27 47 27 l51 0 0 -80 0 -80
55 0 c52 0 55 1 55 25 0 24 2 25 75 25 l75 0 0 -50 c0 -46 -2 -50 -22 -47 -18
2 -24 -4 -26 -25 -3 -22 -9 -28 -28 -28 -20 0 -24 -5 -24 -30 0 -25 4 -30 24
-30 19 0 25 -6 28 -27 3 -26 3 -26 81 -24 77 2 79 2 75 -21 -2 -15 -11 -24
-25 -26 -14 -2 -23 -11 -25 -25 -2 -16 -11 -23 -30 -25 -22 -3 -28 -9 -28 -28
0 -19 -5 -24 -25 -24 -21 0 -25 -5 -25 -30 l0 -30 80 0 c79 0 80 0 80 -25 0
-20 -5 -25 -24 -25 -18 0 -25 -6 -28 -22 -2 -17 -11 -24 -30 -26 -22 -3 -28
-9 -28 -28 0 -19 -5 -24 -25 -24 -24 0 -25 -3 -25 -60 l0 -60 55 0 c48 0 55
-2 55 -20 0 -16 -7 -20 -30 -20 -25 0 -30 -4 -30 -25 0 -23 -3 -24 -77 -27
-83 -3 -80 -1 -74 -58 1 -5 12 -10 26 -10 20 0 25 -5 25 -25 0 -20 5 -25 25
-25 18 0 25 -5 25 -19 0 -17 -8 -20 -52 -23 -38 -2 -53 -7 -54 -18 -1 -8 -2
-21 -3 -27 -1 -9 -18 -13 -50 -13 -44 0 -49 -2 -53 -25 -6 -30 -2 -35 29 -35
18 0 23 -5 23 -25 0 -21 5 -25 30 -25 23 0 30 -4 30 -20 0 -19 -7 -20 -160
-20 l-160 0 0 -35 c0 -31 3 -35 25 -35 20 0 25 -5 25 -25 0 -20 5 -25 25 -25
18 0 25 -5 25 -20 0 -19 -7 -20 -149 -20 -148 0 -150 0 -153 23 -3 20 -9 22
-80 25 -75 3 -78 4 -78 27 0 24 -2 25 -80 25 -78 0 -80 1 -80 24 0 19 -6 25
-27 28 -22 2 -29 9 -31 31 -3 21 -9 27 -28 27 -19 0 -24 5 -24 25 0 20 -5 25
-25 25 -24 0 -25 2 -25 75 0 73 1 75 25 75 21 0 25 5 25 30 0 27 3 30 30 30
25 0 30 4 30 25 0 20 5 25 25 25 20 0 25 5 25 25 0 20 5 25 25 25 20 0 25 5
25 25 0 20 5 25 24 25 19 0 25 6 28 28 2 21 9 28 31 30 21 3 27 9 27 28 0 19
5 24 25 24 20 0 25 5 25 25 0 20 5 25 25 25 20 0 25 5 25 25 0 24 3 25 55 25
54 0 55 0 55 30 0 30 1 30 54 30 51 0 53 1 48 25 -4 24 -3 25 52 25 56 0 56 0
56 30 l0 30 -85 0 c-84 0 -85 0 -85 -24 0 -23 -4 -25 -52 -28 -49 -3 -53 -5
-50 -26 3 -23 1 -24 -51 -20 -31 1 -55 1 -55 -2 0 -3 0 -17 -1 -32 -1 -27 -3
-28 -51 -28 -46 0 -50 -2 -50 -24 0 -19 -6 -25 -27 -28 -20 -2 -28 -9 -28 -23
0 -13 -8 -22 -25 -25 -18 -4 -26 -13 -28 -33 -3 -21 -9 -27 -28 -27 -19 0 -24
-5 -24 -25 0 -24 -3 -25 -55 -25 -52 0 -55 -1 -55 -25 0 -23 -3 -25 -49 -25
-47 0 -50 -2 -53 -27 -3 -28 -4 -28 -75 -29 l-73 -1 0 29 c0 27 -1 28 -55 28
l-55 0 0 50 c0 47 -2 50 -25 50 l-25 0 0 210 0 210 25 0 c23 0 25 3 25 49 0
47 2 50 28 53 21 2 27 8 27 28 0 18 6 26 23 28 19 3 22 -1 22 -27 0 -28 3 -31
30 -31 30 0 30 1 30 55 0 52 1 55 25 55 20 0 25 5 25 25 0 20 5 25 25 25 23 0
25 -3 25 -50 0 -49 1 -50 30 -50 25 0 30 4 30 25 0 20 5 25 25 25 23 0 25 3
25 50 0 47 2 50 25 50 21 0 25 5 25 30 0 25 4 30 25 30 24 0 25 -3 25 -55 0
-54 0 -55 30 -55 25 0 30 4 30 24 0 19 6 25 28 28 23 3 27 7 24 31 -3 24 0 27
27 27 26 0 31 4 31 25 0 23 4 25 45 25 l45 0 0 -50z"/>
</g>
</svg>
