<svg width="250" height="298" viewBox="0 0 250 298" fill="none" xmlns="http://www.w3.org/2000/svg">
  <g clip-path="url(#clip0_115_113)">
    <path
      d="M123.825 0.00297061C116.657 -0.0749794 109.401 1.37762 103.09 4.77836C96.3835 8.39267 90.8893 14.1738 87.5042 20.9991C84.1208 27.8211 82.7913 35.1072 82.5902 43.1319C82.208 58.3787 82.9341 74.3706 84.0843 88.8623C84.3897 93.2749 84.938 95.8573 84.3773 100.386C82.4908 110.016 74.0641 116.498 69.5726 124.956C64.6179 134.287 62.5292 144.837 58.7894 154.718C55.3669 163.76 50.5618 172.238 47.3187 181.347C42.7838 194.083 41.4282 208.078 44.4242 221.261C46.708 231.31 51.4788 240.734 57.9085 248.794C56.978 250.471 56.0763 252.166 55.1156 253.825C52.1361 258.972 48.496 263.852 46.7992 269.552C45.9507 272.402 45.6167 275.442 46.1644 278.364C46.7121 281.287 48.1909 284.083 50.516 285.937C52.038 287.15 53.8734 287.931 55.7699 288.37C57.6663 288.809 59.6265 288.915 61.5726 288.874C68.9672 288.717 76.1316 286.469 83.2855 284.591C87.525 283.478 91.7959 282.49 96.0882 281.603C111.329 278.48 128.339 279.727 142.487 281.778C147.279 282.502 152.036 283.449 156.746 284.591C164.124 286.379 171.475 288.658 179.063 288.874C181.06 288.931 183.073 288.843 185.024 288.409C186.974 287.975 188.866 287.182 190.428 285.937C192.757 284.079 194.236 281.279 194.784 278.351C195.331 275.422 194.993 272.374 194.135 269.521C192.42 263.814 188.746 258.946 185.7 253.825C184.497 251.805 183.379 249.733 182.186 247.708C191.355 237.412 198.734 225.505 203.002 212.427C207.661 198.152 208.517 182.781 206.555 167.894C204.594 153.006 199.873 138.572 193.657 124.903C185.859 107.765 179.304 101.572 174.553 86.5225C169.418 70.2562 173.658 51.0083 169.842 36.2549C168.48 31.2376 166.309 26.4481 163.516 22.0635C160.243 16.926 156.091 12.3211 151.159 8.74711C143.288 3.04458 133.543 0.108657 123.825 0.00297061Z"
      fill="#020204" />
    <path
      d="M95.7162 85.877C94.6698 87.1883 93.9885 88.7643 93.577 90.3907C93.1654 92.0171 93.0147 93.6987 92.9504 95.3751C92.8219 98.7281 93.0269 102.145 92.1395 105.381C91.1907 108.841 89.0635 111.838 86.9819 114.759C83.377 119.818 79.7333 125.009 77.9548 130.961C76.8777 134.566 76.5192 138.384 76.9064 142.126C72.8711 148.052 69.3775 154.347 66.4835 160.907C62.0973 170.848 59.0874 181.433 58.0289 192.248C56.7329 205.49 58.4265 219.11 63.6564 231.344C67.4377 240.19 73.0741 248.288 80.3421 254.591C84.0375 257.796 88.1417 260.53 92.5316 262.688C107.744 270.165 126.545 270.179 141.505 262.208C149.323 258.042 155.922 251.95 162.285 245.785C166.117 242.073 169.929 238.273 172.852 233.81C178.479 225.218 180.439 214.774 181.657 204.576C183.787 186.742 183.856 167.906 176.036 151.737C173.344 146.171 169.757 141.038 165.455 136.597C164.31 128.816 162.049 121.2 158.763 114.055C156.393 108.9 153.495 103.993 151.292 98.7638C150.388 96.6171 149.602 94.419 148.599 92.3169C147.595 90.2147 146.357 88.1919 144.674 86.5814C142.951 84.9323 140.804 83.7632 138.539 83.0151C136.274 82.2671 133.889 81.9282 131.507 81.8083C126.742 81.5687 121.968 82.1918 117.201 82.0026C113.407 81.8519 109.624 81.1869 105.833 81.4107C103.937 81.5226 102.042 81.8613 100.282 82.5756C98.5229 83.2899 96.9006 84.3927 95.7162 85.877Z"
      fill="#FDFDFB" />
    <g opacity="0.25" filter="url(#filter0_f_115_113)">
      <path
        d="M78.9287 133.656C79.9446 135.18 78.2969 140.434 101.973 137.071C101.973 137.071 97.8152 137.528 93.7165 138.475C87.3433 140.609 81.7923 142.992 77.5099 146.151C73.2672 149.272 70.1603 153.347 66.2672 156.848C66.2672 156.848 72.5717 145.329 74.1434 141.86C75.7151 138.391 73.8803 138.55 75.1233 133.447C76.3664 128.343 79.4098 123.44 79.4098 123.44C79.4098 123.44 76.9253 130.65 78.9287 133.656Z"
        fill="url(#paint0_radial_115_113)" />
    </g>
    <g opacity="0.42" filter="url(#filter1_f_115_113)">
      <path
        d="M155.062 132.281C150.237 135.642 147.41 135.244 141.555 135.902C135.701 136.559 119.857 136.321 119.857 136.321C119.857 136.321 122.15 136.278 127.234 137.225C132.318 138.172 142.687 139.078 148.526 141.3C154.365 143.522 156.495 144.157 160.043 146.401C165.094 149.594 168.802 154.597 173.63 158.098C173.63 158.098 173.864 153.454 171.915 149.985C169.965 146.516 164.724 141.05 163.182 135.947C161.641 130.843 160.908 120.815 160.908 120.815C160.908 120.815 159.887 128.919 155.062 132.281Z"
        fill="url(#paint1_radial_115_113)" />
    </g>
    <g opacity="0.2" filter="url(#filter2_f_115_113)">
      <path
        d="M109.682 125.103C109.502 126.559 109.27 128.008 108.985 129.447C108.844 130.156 108.69 130.867 108.426 131.54C108.162 132.213 107.782 132.852 107.245 133.337C106.774 133.761 106.2 134.052 105.624 134.316C103.376 135.345 100.969 136.029 98.5159 136.335C99.4958 136.407 100.474 136.497 101.451 136.603C102.066 136.671 102.683 136.746 103.283 136.899C103.882 137.053 104.468 137.289 104.967 137.655C105.515 138.056 105.945 138.603 106.266 139.201C106.907 140.392 107.121 141.764 107.239 143.111C107.39 144.835 107.402 146.57 107.272 148.295C107.388 147.141 107.63 145.999 107.992 144.897C108.645 142.911 109.696 141.05 111.112 139.511C111.674 138.901 112.292 138.341 112.971 137.863C115.049 136.4 117.689 135.758 120.207 136.102C117.648 136.215 115.058 135.411 113.013 133.869C111.971 133.083 111.064 132.106 110.433 130.964C109.457 129.199 109.183 127.057 109.682 125.103Z"
        fill="url(#paint2_radial_115_113)" />
    </g>
    <g opacity="0.11" filter="url(#filter3_f_115_113)">
      <path
        d="M103.512 159.144C102.282 163.823 101.437 168.603 100.986 173.42C100.349 180.232 100.503 187.093 100.137 193.925C99.8266 199.722 99.1458 205.581 100.153 211.299C100.633 214.025 101.496 216.684 102.707 219.173C102.9 218.223 103.041 217.263 103.13 216.297C103.556 211.661 102.776 207.011 102.512 202.362C102.05 194.215 103.178 186.072 103.637 177.925C103.99 171.67 103.948 165.393 103.512 159.144Z"
        fill="black" />
    </g>
    <g opacity="0.25" filter="url(#filter4_f_115_113)">
      <path
        d="M81.5858 113.067C81.4678 111.631 79.4171 111.416 78.5029 112.132C77.7308 112.736 77.006 114.803 77.6728 115.609C78.7553 116.919 81.7476 115.035 81.5858 113.067Z"
        fill="#7C7C7C" />
    </g>
    <g opacity="0.75" filter="url(#filter5_f_115_113)">
      <path
        d="M185.009 152.286C186.197 152.102 193.526 158.333 192.523 160.648C191.52 162.964 189.639 161.568 188.292 161.583C186.946 161.599 183.262 163.272 182.645 162.216C182.028 161.16 184.274 158.696 185.45 156.635C186.397 154.977 183.821 152.469 185.009 152.286Z"
        fill="#7C7C7C" />
    </g>
    <g filter="url(#filter6_f_115_113)">
      <path
        d="M140.255 12.9115C137.691 14.7204 138.811 16.9793 139.914 19.2462C141.016 21.5131 137.489 28.0488 137.452 28.3306C137.415 28.6125 144.394 25.0176 146.296 22.6825C148.543 19.9248 154.22 26.4133 153.911 25.4261C153.913 23.6597 142.818 11.1025 140.255 12.9115Z"
        fill="#7C7C7C" />
    </g>
    <g filter="url(#filter7_f_115_113)">
      <path
        d="M159.699 88.9249C157.537 90.8943 160.713 93.8525 162.219 97.3292C163.155 99.4904 165.746 102.534 168.251 102.047C170.136 101.68 171.306 98.9673 171.127 97.0555C170.783 93.3669 167.671 92.5029 165.41 91.236C163.619 90.232 161.218 87.5421 159.699 88.9249Z"
        fill="#838384" />
    </g>
    <mask id="mask0_115_113" style="mask-type:luminance" maskUnits="userSpaceOnUse" x="57" y="81" width="126"
      height="188">
      <path
        d="M95.7162 85.877C94.6698 87.1884 93.9885 88.7643 93.5769 90.3907C93.1654 92.0171 93.0147 93.6987 92.9504 95.3752C92.8219 98.7281 93.0269 102.145 92.1395 105.381C91.1907 108.841 89.0635 111.838 86.9818 114.759C83.377 119.818 79.7333 125.009 77.9548 130.961C76.8777 134.566 76.5192 138.384 76.9064 142.126C72.8711 148.052 69.3775 154.347 66.4835 160.907C62.0973 170.848 59.0874 181.433 58.0289 192.248C56.7329 205.49 58.4265 219.11 63.6564 231.344C67.4377 240.19 73.0741 248.288 80.3421 254.591C84.0375 257.796 88.1417 260.53 92.5316 262.688C107.744 270.165 126.545 270.179 141.505 262.208C149.323 258.042 155.922 251.95 162.285 245.785C166.117 242.073 169.929 238.273 172.852 233.81C178.479 225.218 180.439 214.774 181.657 204.576C183.787 186.742 183.856 167.906 176.036 151.737C173.344 146.171 169.757 141.038 165.455 136.597C164.31 128.816 162.049 121.2 158.763 114.055C156.393 108.9 153.495 103.993 151.292 98.7639C150.388 96.6171 149.602 94.419 148.599 92.3169C147.595 90.2147 146.357 88.1919 144.674 86.5814C142.951 84.9323 140.804 83.7632 138.539 83.0151C136.274 82.2671 133.889 81.9282 131.507 81.8083C126.742 81.5687 121.968 82.1918 117.201 82.0026C113.407 81.8519 109.624 81.1869 105.833 81.4107C103.937 81.5226 102.042 81.8613 100.282 82.5756C98.5229 83.2899 96.9006 84.3927 95.7162 85.877Z"
        fill="white" />
    </mask>
    <g mask="url(#mask0_115_113)">
      <g filter="url(#filter8_f_115_113)">
        <path
          d="M93.3794 103.664C95.0823 108.602 98.5097 112.816 102.565 116.108C103.914 117.202 105.347 118.212 106.931 118.925C108.516 119.637 110.263 120.044 111.994 119.897C113.689 119.753 115.301 119.088 116.783 118.251C118.264 117.415 119.639 116.404 121.076 115.494C123.538 113.934 126.175 112.673 128.733 111.273C131.815 109.586 134.802 107.683 137.397 105.314C138.585 104.229 139.693 103.046 141.005 102.115C142.317 101.184 143.888 100.509 145.493 100.618C146.697 100.7 147.826 101.212 149.005 101.466C149.595 101.593 150.206 101.656 150.802 101.565C151.399 101.474 151.982 101.22 152.4 100.786C152.913 100.253 153.137 99.4857 153.11 98.747C153.083 98.0082 152.825 97.294 152.481 96.6399C151.792 95.3317 150.747 94.2047 150.281 92.8015C149.866 91.5529 149.95 90.2027 149.987 88.8875C150.023 87.5724 149.994 86.1985 149.388 85.0308C148.927 84.1416 148.152 83.4356 147.267 82.9669C146.381 82.4982 145.388 82.2569 144.391 82.1633C142.396 81.976 140.397 82.3632 138.396 82.4767C135.74 82.6274 133.074 82.295 130.419 82.4546C127.108 82.6537 123.862 83.6152 120.545 83.6211C116.759 83.6281 112.976 82.3892 109.237 82.9811C107.632 83.2351 106.102 83.8187 104.561 84.3333C103.02 84.8479 101.429 85.3006 99.8042 85.277C97.96 85.2503 96.175 84.6117 94.3352 84.4804C93.4154 84.4148 92.4728 84.4802 91.6092 84.8036C90.7455 85.1271 89.9646 85.7272 89.5408 86.5462C89.2979 87.0156 89.1776 87.5431 89.1549 88.071C89.1323 88.599 89.2052 89.128 89.3328 89.6409C89.5879 90.6665 90.057 91.6237 90.4426 92.6077C91.8351 96.1615 92.135 100.056 93.3794 103.664Z"
          fill="black" fill-opacity="0.258824" />
      </g>
    </g>
    <mask id="mask1_115_113" style="mask-type:luminance" maskUnits="userSpaceOnUse" x="57" y="81" width="126"
      height="188">
      <path
        d="M95.7162 85.877C94.6698 87.1884 93.9885 88.7643 93.577 90.3907C93.1654 92.0171 93.0147 93.6987 92.9504 95.3751C92.8219 98.728 93.0269 102.145 92.1395 105.381C91.1907 108.841 89.0635 111.838 86.9818 114.759C83.377 119.818 79.7333 125.009 77.9548 130.961C76.8777 134.566 76.5192 138.384 76.9064 142.126C72.8711 148.052 69.3775 154.347 66.4835 160.907C62.0973 170.848 59.0874 181.433 58.0289 192.248C56.7329 205.49 58.4265 219.11 63.6564 231.344C67.4377 240.19 73.0741 248.288 80.3421 254.591C84.0375 257.796 88.1417 260.53 92.5316 262.688C107.744 270.165 126.545 270.179 141.505 262.208C149.323 258.042 155.922 251.95 162.285 245.785C166.117 242.073 169.929 238.273 172.852 233.81C178.479 225.218 180.439 214.774 181.657 204.576C183.787 186.742 183.856 167.906 176.036 151.737C173.344 146.171 169.757 141.038 165.455 136.597C164.31 128.816 162.049 121.2 158.763 114.055C156.393 108.9 153.495 103.993 151.292 98.7638C150.388 96.6171 149.602 94.419 148.599 92.3168C147.595 90.2147 146.357 88.1919 144.674 86.5814C142.951 84.9323 140.804 83.7632 138.539 83.0151C136.274 82.2671 133.889 81.9282 131.507 81.8083C126.742 81.5687 121.968 82.1918 117.201 82.0026C113.407 81.8519 109.624 81.1869 105.833 81.4107C103.937 81.5226 102.042 81.8613 100.282 82.5756C98.5229 83.2899 96.9006 84.3927 95.7162 85.877Z"
        fill="white" />
    </mask>
    <g mask="url(#mask1_115_113)">
      <g opacity="0.3" filter="url(#filter9_f_115_113)">
        <path
          d="M88.631 89.5888C91.9395 91.6326 94.9077 94.1429 97.4005 97.0051C99.7137 99.6612 101.682 102.674 104.7 104.64C106.832 106.029 109.395 106.812 111.994 107.05C115.045 107.329 118.134 106.878 121.076 106.081C123.802 105.342 126.439 104.304 128.858 102.929C133.456 100.317 137.297 96.488 142.368 94.7708C143.475 94.3959 144.627 94.1277 145.694 93.6653C146.762 93.2028 147.766 92.5102 148.275 91.5305C148.765 90.5887 148.746 89.5017 148.906 88.4678C149.077 87.3617 149.46 86.2923 149.67 85.192C149.88 84.0916 149.905 82.9147 149.388 81.9038C148.961 81.0668 148.183 80.4045 147.288 79.9837C146.394 79.5628 145.387 79.3717 144.384 79.3263C142.378 79.2356 140.397 79.7088 138.396 79.8768C135.747 80.0994 133.078 79.7856 130.419 79.8593C127.111 79.9511 123.851 80.6412 120.545 80.7851C116.773 80.9492 113.011 80.4005 109.237 80.2772C107.605 80.2239 105.962 80.2509 104.353 80.5098C102.744 80.7688 101.165 81.2667 99.8042 82.0993C98.4843 82.9072 97.4075 84.0035 96.1977 84.9464C95.5928 85.4179 94.9499 85.8538 94.2439 86.1853C93.5379 86.5168 92.7651 86.7421 91.9736 86.7772C91.5663 86.7952 91.1553 86.7632 90.7523 86.8206C90.0761 86.917 89.4486 87.2752 89.054 87.7901C88.6595 88.305 88.5031 88.9696 88.631 89.5888Z"
          fill="black" />
      </g>
    </g>
    <path
      d="M188.113 147.512C194.198 152.407 198.059 159.798 199.254 167.515C200.187 173.534 199.581 179.71 198.224 185.647C196.867 191.585 194.771 197.324 192.692 203.048C191.863 205.331 191.03 207.635 190.7 210.041C190.371 212.448 190.579 214.996 191.74 217.129C193.07 219.575 195.553 221.259 198.222 222.052C200.857 222.835 203.703 222.818 206.37 222.154C209.037 221.489 213.527 220.628 215.698 218.942C221.214 214.659 222.523 207.222 223.83 200.692C225.193 193.882 224.526 186.742 223.329 179.862C221.695 170.481 218.947 161.311 215.449 152.454C212.876 145.94 209.579 139.712 205.657 133.934C201.81 128.266 196.35 123.841 192.317 118.299C190.916 116.374 189.23 114.367 187.854 112.421C184.885 108.223 185.558 109.006 183.716 106.289C182.38 104.318 180.27 103.64 178.051 102.778C175.831 101.916 173.338 101.662 171.046 102.307C168.024 103.157 165.556 105.538 164.243 108.389C162.93 111.24 162.7 114.512 163.211 117.609C163.87 121.605 165.697 125.312 167.757 128.798C170.084 132.735 172.779 136.525 176.293 139.452C179.96 142.507 184.395 144.521 188.113 147.512Z"
      fill="#020204" />
    <path
      d="M73.485 117.099C66.4119 125.135 59.1327 132.915 55.1392 141.604C53.1629 146.017 52.2284 150.811 50.8742 155.453C49.3363 160.725 47.2481 165.823 44.9035 170.789C42.7385 175.374 40.3537 179.852 37.9646 184.325C36.2264 187.579 34.4595 190.906 33.8568 194.545C33.3805 197.422 33.6583 200.39 34.3905 203.212C35.1228 206.034 36.3002 208.722 37.6283 211.318C43.2955 222.393 51.7983 231.939 61.87 239.242C66.4407 242.557 71.3367 245.423 76.4725 247.768C79.255 249.039 82.186 250.173 85.2444 250.226C86.7735 250.252 88.3185 250 89.7187 249.385C91.1189 248.77 92.3694 247.781 93.2012 246.498C94.224 244.92 94.5712 242.96 94.3658 241.091C94.1605 239.222 93.431 237.438 92.4526 235.832C90.0626 231.909 86.2874 229.071 82.6562 226.258C74.8156 220.185 67.2315 213.778 59.9741 207.019C57.925 205.11 55.8757 203.141 54.4439 200.734C53.0496 198.391 52.2963 195.721 51.786 193.042C50.3863 185.693 50.7451 177.959 53.2456 170.908C54.2238 168.15 55.5168 165.516 56.7638 162.869C58.9251 158.28 60.971 153.603 63.8131 149.402C67.3511 144.171 72.0806 139.741 74.9646 134.124C77.3988 129.382 78.3845 124.051 79.3264 118.805C80.0634 114.701 81.4768 110.681 82.1957 106.573C80.7895 109.239 76.2577 113.616 73.485 117.099Z"
      fill="#020204" />
    <mask id="mask2_115_113" style="mask-type:luminance" maskUnits="userSpaceOnUse" x="162" y="101" width="63"
      height="122">
      <path
        d="M188.113 147.512C194.198 152.407 198.059 159.798 199.254 167.515C200.187 173.534 199.581 179.71 198.224 185.647C196.867 191.585 194.771 197.324 192.692 203.048C191.863 205.331 191.03 207.635 190.7 210.041C190.371 212.448 190.579 214.996 191.74 217.129C193.07 219.575 195.553 221.259 198.222 222.052C200.857 222.835 203.703 222.818 206.37 222.154C209.037 221.489 211.527 220.19 213.698 218.504C219.214 214.221 222.542 207.556 223.83 200.692C225.118 193.829 224.526 186.742 223.329 179.862C221.695 170.481 218.947 161.311 215.449 152.454C212.876 145.94 209.579 139.712 205.657 133.934C201.81 128.266 196.351 123.841 192.317 118.299C190.916 116.374 189.23 114.367 187.854 112.421C184.885 108.223 185.558 109.006 183.716 106.289C182.38 104.318 180.27 103.64 178.051 102.778C175.831 101.916 173.338 101.662 171.046 102.307C168.024 103.157 165.556 105.538 164.243 108.389C162.93 111.24 162.7 114.512 163.211 117.609C163.87 121.605 165.697 125.312 167.757 128.798C170.084 132.735 172.779 136.525 176.293 139.452C179.96 142.507 184.395 144.521 188.113 147.512Z"
        fill="white" />
    </mask>
    <g mask="url(#mask2_115_113)">
      <g filter="url(#filter10_f_115_113)">
        <path
          d="M173.793 138.081C174.287 138.549 174.792 139.024 175.32 139.456C179.054 142.511 181.041 145.941 184.827 148.933C191.021 153.827 197.307 162.276 198.524 169.993C199.473 176.012 198.218 179.283 196.687 186.381C195.156 193.48 190.813 203.53 188.467 210.373C187.532 213.102 190.362 211.976 189.99 214.853C189.808 216.267 189.789 217.696 189.955 219.112C189.978 218.841 189.995 218.56 190.026 218.29C190.476 214.368 191.678 210.596 192.987 206.895C195.506 199.773 198.397 192.794 200.39 185.487C202.383 178.181 202.162 172.923 201.122 166.644C199.814 158.747 195.22 151.457 188.714 146.644C184.114 143.24 178.69 141.059 173.793 138.081Z"
          fill="#838384" />
      </g>
    </g>
    <mask id="mask3_115_113" style="mask-type:luminance" maskUnits="userSpaceOnUse" x="33" y="106" width="62"
      height="145">
      <path
        d="M73.485 117.099C66.4119 125.135 59.1328 132.915 55.1392 141.604C53.163 146.017 52.2285 150.811 50.8742 155.453C49.3363 160.725 47.2482 165.823 44.9035 170.789C42.7386 175.374 40.3537 179.852 37.9646 184.325C36.2264 187.579 34.4595 190.906 33.8568 194.545C33.3805 197.422 33.6583 200.39 34.3906 203.212C35.1228 206.034 36.3002 208.722 37.6283 211.318C43.2956 222.393 51.7983 231.939 61.8701 239.242C66.4407 242.557 71.3368 245.423 76.4725 247.768C79.255 249.039 82.1861 250.173 85.2444 250.226C86.7735 250.252 88.3185 250 89.7187 249.385C91.1189 248.77 92.3694 247.781 93.2013 246.498C94.224 244.92 94.5712 242.96 94.3659 241.091C94.1606 239.222 93.431 237.438 92.4526 235.832C90.0627 231.909 86.2874 229.071 82.6562 226.258C74.8157 220.185 67.2316 213.778 59.9741 207.019C57.925 205.11 55.8757 203.141 54.4439 200.734C53.0496 198.391 52.2963 195.721 51.7861 193.042C50.3864 185.693 50.7452 177.959 53.2457 170.908C54.2239 168.15 55.5168 165.516 56.7638 162.869C58.9251 158.28 60.9711 153.603 63.8131 149.402C67.3511 144.171 72.0806 139.741 74.9646 134.124C77.3988 129.382 78.3845 124.051 79.3265 118.805C80.0634 114.701 81.4769 110.681 82.1957 106.573C80.7896 109.239 76.2577 113.616 73.485 117.099Z"
        fill="white" />
    </mask>
    <g mask="url(#mask3_115_113)">
      <g opacity="0.95" filter="url(#filter11_f_115_113)">
        <path
          d="M65.3424 146.332C63.0211 148.47 61.0093 150.943 59.389 153.65C56.721 158.109 55.15 163.119 53.2109 167.939C51.7673 171.528 50.0857 175.132 49.8843 178.995C49.7808 180.98 50.0749 182.961 50.141 184.947C50.2072 186.933 50.0235 188.998 49.0513 190.731C48.238 192.181 46.8854 193.32 45.3184 193.875C47.4338 194.582 49.3229 195.951 50.6537 197.74C51.7682 199.239 52.4813 200.994 53.4498 202.591C54.2369 203.89 55.2031 205.093 56.3926 206.036C57.5821 206.979 59.004 207.656 60.5099 207.849C62.5761 208.114 64.7456 207.421 66.2753 206.007C64.3499 187.971 66.1133 169.549 71.4254 152.207C71.7609 151.111 72.1127 150.008 72.1958 148.866C72.2789 147.724 72.0668 146.518 71.3716 145.608C71.0015 145.123 70.5032 144.737 69.9414 144.5C69.3796 144.263 68.7555 144.175 68.1501 144.248C67.5446 144.32 66.9591 144.554 66.4695 144.917C65.9798 145.281 65.5872 145.774 65.3424 146.332Z"
          fill="#7C7C7C" />
      </g>
    </g>
    <g opacity="0.2" filter="url(#filter12_f_115_113)">
      <path
        d="M229.068 250.195C228.599 251.744 227.885 253.24 226.963 254.605C224.93 257.618 221.978 259.885 219.029 261.976C213.998 265.542 208.757 268.813 204.074 272.866C200.937 275.581 198.076 278.625 195.425 281.831C193.158 284.572 191.026 287.45 188.441 289.888C185.833 292.348 182.762 294.335 179.454 295.417C175.431 296.734 171.18 296.671 167.304 295.677C164.588 294.98 161.94 293.77 160.257 291.58C158.568 289.382 158.021 286.428 157.825 283.528C157.48 278.399 158.092 273.158 158.65 267.953C159.114 263.627 159.542 259.298 159.717 254.981C160.035 247.129 159.515 239.345 158.452 231.708C158.274 230.428 158.08 229.139 158.188 227.822C158.296 226.504 158.738 225.134 159.663 224.117C160.518 223.177 161.71 222.621 162.899 222.348C164.088 222.074 165.291 222.058 166.485 222.026C169.299 221.951 172.129 221.786 174.901 222.032C176.649 222.188 178.364 222.507 180.11 222.675C183.024 222.955 186.047 222.808 188.97 221.951C192.116 221.029 195.117 219.3 198.314 218.824C199.625 218.629 200.941 218.651 202.217 218.83C203.518 219.012 204.813 219.372 205.813 220.166C206.573 220.769 207.13 221.599 207.565 222.482C208.213 223.799 208.612 225.253 208.839 226.744C209.041 228.064 209.113 229.424 209.453 230.701C210.013 232.802 211.282 234.587 212.809 236.041C214.335 237.494 216.12 238.643 217.903 239.775C219.678 240.902 221.464 242.022 223.36 242.951C224.25 243.387 225.165 243.782 226.016 244.284C226.867 244.786 227.66 245.405 228.225 246.22C228.991 247.324 229.298 248.773 229.068 250.195Z"
        fill="url(#paint3_linear_115_113)" />
    </g>
    <mask id="mask4_115_113" style="mask-type:luminance" maskUnits="userSpaceOnUse" x="162" y="207" width="88"
      height="91">
      <path
        d="M246.202 258.677C243.578 261.791 239.934 263.847 236.305 265.696C230.117 268.851 223.704 271.618 217.886 275.413C213.988 277.955 210.39 280.94 207.025 284.155C204.148 286.905 201.42 289.843 198.193 292.173C194.937 294.524 191.174 296.227 187.202 296.823C182.372 297.548 177.381 296.61 172.903 294.659C169.766 293.292 166.748 291.336 164.94 288.43C163.126 285.512 162.712 281.942 162.708 278.506C162.7 272.429 163.826 266.416 164.886 260.432C165.767 255.461 166.606 250.478 167.146 245.457C168.13 236.326 168.123 227.105 167.466 217.944C167.356 216.41 167.229 214.861 167.458 213.34C167.687 211.819 168.313 210.303 169.479 209.3C170.556 208.374 172 207.964 173.418 207.886C174.837 207.807 176.252 208.032 177.658 208.238C180.971 208.722 184.31 209.103 187.547 209.954C189.59 210.492 191.581 211.213 193.62 211.765C197.022 212.685 200.586 213.126 204.087 212.717C207.856 212.276 211.517 210.86 215.311 210.952C216.867 210.99 218.412 211.284 219.897 211.752C221.412 212.23 222.906 212.914 224.02 214.047C224.866 214.908 225.456 215.993 225.899 217.116C226.558 218.79 226.914 220.573 227.066 222.365C227.2 223.953 227.179 225.56 227.48 227.125C227.975 229.699 229.327 232.048 231.008 234.06C232.689 236.072 234.698 237.78 236.705 239.468C238.704 241.149 240.715 242.822 242.872 244.296C243.884 244.988 244.928 245.635 245.889 246.397C246.85 247.158 247.734 248.043 248.335 249.112C249.15 250.561 249.399 252.32 248.872 253.988C248.346 255.657 247.391 257.265 246.202 258.677Z"
        fill="white" />
    </mask>
    <g mask="url(#mask4_115_113)">
      <g filter="url(#filter13_f_115_113)">
        <path
          d="M245.903 250.787C245.286 252.334 244.413 253.78 243.332 255.047C240.929 257.861 237.603 259.701 234.294 261.358C228.641 264.188 222.791 266.675 217.473 270.093C213.919 272.377 210.632 275.059 207.555 277.953C204.926 280.425 202.43 283.069 199.489 285.161C196.508 287.281 193.071 288.808 189.452 289.341C185.043 289.992 180.492 289.148 176.394 287.396C173.536 286.174 170.776 284.426 169.122 281.796C167.475 279.179 167.09 275.966 167.083 272.874C167.069 267.409 168.101 262.003 169.072 256.625C169.879 252.157 170.647 247.677 171.136 243.163C172.025 234.954 171.984 226.665 171.428 218.428C171.335 217.047 171.228 215.654 171.44 214.287C171.652 212.92 172.218 211.559 173.266 210.656C174.249 209.81 175.569 209.439 176.865 209.371C178.16 209.303 179.452 209.512 180.736 209.701C183.759 210.146 186.808 210.48 189.767 211.244C191.632 211.726 193.45 212.376 195.312 212.872C198.421 213.701 201.674 214.097 204.871 213.728C208.312 213.331 211.658 212.057 215.121 212.142C216.541 212.176 217.951 212.442 219.309 212.861C220.691 213.287 222.058 213.895 223.074 214.924C223.84 215.7 224.37 216.678 224.79 217.683C225.416 219.18 225.823 220.78 225.856 222.402C225.891 224.096 225.52 225.797 225.75 227.476C225.936 228.838 226.513 230.124 227.251 231.285C227.988 232.446 228.885 233.496 229.773 234.546C231.49 236.575 233.212 238.642 235.366 240.2C237.818 241.974 240.728 243.012 243.261 244.667C244.016 245.161 244.747 245.72 245.279 246.448C246.177 247.676 246.418 249.356 245.903 250.787Z"
          fill="#CD8907" />
      </g>
    </g>
    <mask id="mask5_115_113" style="mask-type:luminance" maskUnits="userSpaceOnUse" x="162" y="207" width="88"
      height="91">
      <path
        d="M246.202 258.676C243.578 261.791 239.934 263.847 236.305 265.696C230.117 268.851 223.704 271.618 217.886 275.413C213.988 277.955 210.39 280.94 207.025 284.155C204.148 286.905 201.42 289.843 198.193 292.173C194.937 294.524 191.174 296.227 187.202 296.823C182.372 297.548 177.381 296.61 172.903 294.659C169.766 293.292 166.748 291.336 164.94 288.43C163.126 285.512 162.712 281.942 162.708 278.506C162.7 272.429 163.826 266.416 164.886 260.432C165.767 255.461 166.606 250.478 167.146 245.457C168.13 236.326 168.123 227.105 167.466 217.944C167.356 216.41 167.229 214.861 167.458 213.34C167.687 211.819 168.313 210.303 169.479 209.3C170.556 208.374 172 207.964 173.418 207.886C174.837 207.807 176.252 208.032 177.658 208.238C180.971 208.722 184.31 209.103 187.547 209.954C189.59 210.492 191.581 211.213 193.62 211.765C197.022 212.685 200.586 213.126 204.087 212.717C207.856 212.276 211.517 210.86 215.311 210.952C216.867 210.99 218.412 211.284 219.897 211.752C221.412 212.23 222.906 212.914 224.02 214.047C224.866 214.908 225.456 215.993 225.899 217.116C226.558 218.789 226.914 220.573 227.066 222.365C227.2 223.953 227.179 225.56 227.48 227.125C227.975 229.699 229.327 232.048 231.008 234.06C232.689 236.072 234.698 237.78 236.705 239.468C238.704 241.149 240.715 242.822 242.872 244.296C243.884 244.988 244.928 245.635 245.889 246.397C246.85 247.158 247.734 248.043 248.335 249.112C249.15 250.561 249.398 252.32 248.872 253.988C248.346 255.657 247.391 257.265 246.202 258.676Z"
        fill="white" />
    </mask>
    <g mask="url(#mask5_115_113)">
      <g filter="url(#filter14_f_115_113)">
        <path
          d="M245.55 249.041C244.862 250.599 243.97 252.052 242.908 253.343C240.447 256.335 237.124 258.394 233.623 259.717C227.861 261.895 221.57 262.187 215.913 264.666C212.466 266.177 209.363 268.454 206.222 270.604C203.682 272.343 201.087 274.016 198.299 275.233C195.149 276.607 191.8 277.378 188.439 277.918C186.301 278.261 184.139 278.515 181.98 278.395C179.821 278.275 177.655 277.77 175.749 276.668C174.305 275.833 173.005 274.632 172.233 273.072C171.377 271.34 171.228 269.306 171.248 267.343C171.3 262.111 172.42 256.935 172.386 251.703C172.357 247.148 171.455 242.651 171.195 238.105C170.696 229.362 172.572 220.467 170.921 211.89C170.657 210.517 170.301 209.146 170.318 207.744C170.328 207.043 170.431 206.338 170.679 205.69C170.927 205.042 171.322 204.451 171.85 204.042C172.294 203.697 172.822 203.487 173.363 203.392C173.903 203.298 174.457 203.317 174.999 203.401C176.083 203.569 177.116 203.995 178.171 204.31C181.191 205.209 184.381 205.19 187.449 205.868C189.376 206.294 191.24 206.991 193.146 207.512C196.347 208.387 199.684 208.761 202.967 208.377C206.497 207.963 209.947 206.682 213.497 206.774C214.952 206.812 216.397 207.083 217.8 207.501C219.203 207.919 220.606 208.511 221.668 209.585C222.433 210.359 222.984 211.348 223.431 212.371C224.083 213.865 224.536 215.487 224.526 217.138C224.52 217.996 224.39 218.848 224.312 219.702C224.235 220.557 224.212 221.432 224.417 222.262C224.622 223.096 225.05 223.847 225.54 224.53C226.03 225.212 226.585 225.836 227.092 226.504C228.512 228.373 229.526 230.552 230.632 232.654C231.738 234.755 232.978 236.834 234.725 238.348C237.102 240.409 240.186 241.232 242.836 242.86C243.611 243.337 244.363 243.896 244.909 244.659C245.346 245.269 245.638 246 245.749 246.761C245.86 247.523 245.791 248.315 245.55 249.041Z"
          fill="#F5C021" />
      </g>
    </g>
    <mask id="mask6_115_113" style="mask-type:luminance" maskUnits="userSpaceOnUse" x="0" y="202" width="96"
      height="95">
      <path
        d="M40.5889 203.082C42.1882 202.419 43.9871 202.298 45.6897 202.612C47.3922 202.926 49.0011 203.662 50.4331 204.635C53.2971 206.58 55.4213 209.412 57.4557 212.214C62.1276 218.648 66.6244 225.216 70.7006 232.043C74.007 237.581 77.0441 243.3 80.8647 248.496C83.3587 251.888 86.1713 255.036 88.6777 258.419C91.1841 261.801 93.4057 265.474 94.5171 269.535C95.9612 274.812 95.4017 280.628 92.8904 285.488C91.1238 288.907 88.4139 291.841 85.118 293.827C81.822 295.814 77.9473 296.842 74.1016 296.697C67.9875 296.468 62.4022 293.412 56.718 291.148C45.137 286.536 32.5582 285.089 20.6214 281.497C16.9528 280.393 13.3455 279.086 9.65147 278.07C8.01022 277.619 6.34282 277.222 4.79273 276.519C3.24265 275.816 1.79318 274.77 0.931016 273.302C0.264625 272.168 -0.0173739 270.832 0.000825133 269.517C0.0190251 268.201 0.326718 266.902 0.774644 265.665C1.6705 263.191 3.1179 260.951 4.0948 258.508C5.68991 254.519 5.9765 250.12 5.76138 245.829C5.54627 241.538 4.85059 237.284 4.55683 232.998C4.42565 231.083 4.37617 229.145 4.74162 227.262C5.10707 225.378 5.91739 223.537 7.29933 222.206C8.57339 220.979 10.2642 220.251 11.9958 219.89C13.7273 219.528 15.5111 219.512 17.2794 219.552C19.0478 219.592 20.8201 219.686 22.5829 219.541C24.3458 219.396 26.1164 219.001 27.6521 218.123C29.112 217.289 30.3064 216.049 31.2958 214.689C32.2852 213.329 33.0849 211.843 33.9047 210.375C34.7245 208.907 35.573 207.443 36.6463 206.149C37.7195 204.854 39.0355 203.726 40.5889 203.082Z"
        fill="white" />
    </mask>
    <g mask="url(#mask6_115_113)">
      <g filter="url(#filter15_f_115_113)">
        <path
          d="M43.1215 205.841C44.5767 205.255 46.2158 205.191 47.7443 205.537C49.2728 205.884 50.6938 206.628 51.9326 207.584C54.4102 209.498 56.1325 212.198 57.7868 214.853C61.7569 221.286 65.6382 227.787 69.3029 234.42C72.0798 239.413 74.7276 244.513 78.1404 249.099C80.4042 252.141 82.9878 254.931 85.2983 257.936C87.6088 260.941 89.6695 264.218 90.6911 267.869C92.0073 272.575 91.4737 277.779 89.1957 282.102C87.5581 285.208 85.0436 287.849 82.0096 289.615C78.9755 291.381 75.4303 292.264 71.923 292.103C66.3247 291.845 61.2117 289.049 55.9421 287.152C45.8391 283.486 34.8887 282.994 24.526 280.132C20.8112 279.124 17.1894 277.779 13.4564 276.838C11.8048 276.421 10.1234 276.081 8.55427 275.419C6.98513 274.757 5.50746 273.73 4.65675 272.254C4.02393 271.157 3.77114 269.866 3.81024 268.6C3.84934 267.334 4.16939 266.089 4.62016 264.906C5.52171 262.539 6.9404 260.396 7.84927 258.031C9.22797 254.457 9.39922 250.527 9.14325 246.705C8.88728 242.883 8.22215 239.096 7.98999 235.271C7.88625 233.563 7.87065 231.833 8.21632 230.156C8.56196 228.479 9.29238 226.846 10.5112 225.644C11.8321 224.335 13.6523 223.62 15.4885 223.339C17.3246 223.059 19.1945 223.181 21.0432 223.346C22.892 223.511 24.7483 223.719 26.6044 223.608C28.4605 223.497 30.3401 223.045 31.8732 222.001C33.2706 221.057 34.3191 219.677 35.1176 218.203C35.9162 216.728 36.4852 215.147 37.0941 213.586C37.7029 212.025 38.3608 210.464 39.3159 209.076C40.271 207.689 41.552 206.472 43.1215 205.841Z"
          fill="#D99A03" />
      </g>
    </g>
    <mask id="mask7_115_113" style="mask-type:luminance" maskUnits="userSpaceOnUse" x="0" y="202" width="96"
      height="95">
      <path
        d="M40.5889 203.082C42.1882 202.419 43.9871 202.298 45.6897 202.612C47.3922 202.926 49.0011 203.662 50.4331 204.635C53.2971 206.58 55.4213 209.412 57.4557 212.214C62.1276 218.648 66.6244 225.216 70.7006 232.043C74.007 237.581 77.0441 243.3 80.8647 248.496C83.3587 251.888 86.1713 255.036 88.6777 258.419C91.1841 261.801 93.4057 265.474 94.5171 269.535C95.9612 274.812 95.4017 280.628 92.8904 285.488C91.1238 288.907 88.4139 291.841 85.118 293.827C81.822 295.814 77.9473 296.842 74.1016 296.697C67.9875 296.468 62.4022 293.412 56.718 291.148C45.137 286.536 32.5582 285.089 20.6214 281.497C16.9528 280.393 13.3455 279.086 9.65147 278.07C8.01022 277.619 6.34282 277.222 4.79273 276.519C3.24265 275.816 1.79318 274.77 0.931016 273.302C0.264625 272.168 -0.0173739 270.832 0.000825133 269.517C0.0190251 268.201 0.326718 266.902 0.774644 265.665C1.6705 263.191 3.1179 260.951 4.0948 258.508C5.68991 254.519 5.9765 250.12 5.76138 245.829C5.54627 241.538 4.85059 237.284 4.55683 232.998C4.42565 231.083 4.37617 229.145 4.74162 227.262C5.10707 225.378 5.91739 223.537 7.29933 222.206C8.57339 220.979 10.2642 220.251 11.9958 219.89C13.7273 219.528 15.5111 219.512 17.2794 219.552C19.0478 219.592 20.8201 219.686 22.5829 219.541C24.3458 219.396 26.1164 219.001 27.6521 218.123C29.112 217.289 30.3064 216.049 31.2958 214.689C32.2852 213.329 33.0849 211.843 33.9047 210.375C34.7245 208.907 35.573 207.443 36.6463 206.149C37.7195 204.854 39.0355 203.726 40.5889 203.082Z"
        fill="white" />
    </mask>
    <g mask="url(#mask7_115_113)">
      <g filter="url(#filter16_f_115_113)">
        <path
          d="M41.7651 202.208C43.1742 201.509 44.8357 201.365 46.3815 201.681C47.9273 201.996 49.3598 202.752 50.5772 203.739C53.0122 205.713 54.5575 208.526 55.9966 211.287C59.3016 217.625 62.38 224.102 66.3346 230.071C69.2033 234.402 72.5142 238.436 75.4161 242.745C79.3517 248.588 82.5519 255.016 83.8725 261.901C84.7607 266.532 84.7315 271.535 82.5001 275.707C81.0314 278.453 78.65 280.705 75.8367 282.115C73.0233 283.524 69.7935 284.095 66.6478 283.818C61.6935 283.381 57.1941 280.945 52.5303 279.247C44.2556 276.233 35.3122 275.512 26.7959 273.238C23.204 272.279 19.6859 271.043 16.045 270.282C14.4389 269.947 12.8014 269.702 11.2683 269.124C9.73515 268.546 8.28206 267.586 7.49864 266.169C6.94725 265.172 6.76207 264.004 6.8443 262.872C6.9265 261.74 7.26515 260.638 7.70893 259.59C8.59648 257.494 9.9098 255.574 10.5993 253.407C11.6125 250.223 11.196 246.772 10.4357 243.52C9.67536 240.269 8.579 237.077 8.24119 233.758C8.09073 232.279 8.09438 230.772 8.43255 229.324C8.77073 227.876 9.45942 226.484 10.5411 225.445C11.9343 224.107 13.8848 223.442 15.8243 223.256C17.7637 223.07 19.7164 223.324 21.6445 223.601C23.5726 223.878 25.5128 224.181 27.4593 224.092C29.4059 224.003 31.3878 223.492 32.9125 222.3C34.4203 221.122 35.3682 219.367 35.9119 217.551C36.4555 215.736 36.6318 213.837 36.8545 211.957C37.0772 210.078 37.355 208.18 38.0843 206.428C38.8135 204.677 40.0452 203.062 41.7651 202.208Z"
          fill="#F5BD0C" />
      </g>
    </g>
    <g opacity="0.35" filter="url(#filter17_f_115_113)">
      <path
        d="M214.496 217.703C213.933 216.601 212.909 215.777 211.767 215.3C210.625 214.824 209.37 214.671 208.133 214.681C205.658 214.7 203.198 215.345 200.733 215.131C198.65 214.951 196.674 214.168 194.643 213.674C192.546 213.163 190.321 212.964 188.238 213.531C186.012 214.137 184.049 215.624 182.819 217.576C181.735 219.297 181.22 221.329 181.058 223.357C180.896 225.384 181.071 227.422 181.276 229.446C181.424 230.91 181.59 232.377 181.944 233.805C182.298 235.233 182.848 236.627 183.71 237.82C184.95 239.536 186.793 240.759 188.779 241.495C192.021 242.695 195.713 242.631 198.911 241.317C204.57 238.86 209.36 234.454 212.28 229.019C213.325 227.073 214.137 225 214.662 222.854C214.87 222.001 215.034 221.131 215.041 220.253C215.049 219.376 214.895 218.485 214.496 217.703Z"
        fill="url(#paint4_radial_115_113)" />
    </g>
    <g opacity="0.35" filter="url(#filter18_f_115_113)">
      <path
        d="M214.496 214.547C213.933 213.75 212.909 213.155 211.767 212.81C210.625 212.465 209.37 212.355 208.133 212.362C205.658 212.376 203.198 212.842 200.733 212.688C198.65 212.558 196.674 211.992 194.643 211.634C192.546 211.265 190.321 211.121 188.238 211.531C186.012 211.969 184.049 213.044 182.819 214.455C181.735 215.7 181.22 217.168 181.058 218.634C180.896 220.1 181.071 221.573 181.276 223.036C181.424 224.094 181.59 225.155 181.944 226.187C182.298 227.22 182.848 228.228 183.71 229.09C184.95 230.331 186.793 231.215 188.779 231.747C192.021 232.615 195.713 232.568 198.911 231.619C204.57 229.842 209.36 226.656 212.28 222.728C213.325 221.321 214.137 219.822 214.662 218.271C214.87 217.654 215.034 217.026 215.041 216.391C215.049 215.756 214.895 215.112 214.496 214.547Z"
        fill="url(#paint5_radial_115_113)" />
    </g>
    <path
      d="M219.199 207.39C218.794 206.287 218.081 205.309 217.209 204.521C216.336 203.732 215.308 203.128 214.226 202.669C212.061 201.75 209.705 201.408 207.394 200.973C205.215 200.564 203.053 200.067 200.867 199.696C198.595 199.311 196.249 199.064 194.001 199.571C192.035 200.014 190.217 201.03 188.73 202.389C187.242 203.749 186.08 205.446 185.245 207.28C183.772 210.509 183.31 214.145 183.591 217.683C183.799 220.316 184.466 223.029 186.199 225.022C187.6 226.632 189.587 227.637 191.633 228.243C195.158 229.286 199 229.231 202.494 228.087C208.261 226.156 213.369 222.314 216.824 217.308C217.963 215.659 218.936 213.86 219.377 211.905C219.713 210.415 219.726 208.824 219.199 207.39Z"
      fill="#020204" />
    <mask id="mask8_115_113" style="mask-type:luminance" maskUnits="userSpaceOnUse" x="183" y="199" width="37"
      height="30">
      <path
        d="M219.199 207.39C218.794 206.287 218.081 205.309 217.209 204.521C216.336 203.732 215.308 203.128 214.226 202.669C212.061 201.75 209.705 201.408 207.394 200.973C205.215 200.564 203.053 200.067 200.867 199.696C198.595 199.311 196.249 199.064 194.001 199.571C192.035 200.014 190.217 201.03 188.73 202.389C187.242 203.749 186.08 205.446 185.245 207.28C183.772 210.509 183.31 214.145 183.591 217.683C183.799 220.316 184.466 223.029 186.199 225.022C187.6 226.632 189.587 227.637 191.633 228.243C195.158 229.286 199 229.231 202.494 228.087C208.261 226.156 213.369 222.314 216.824 217.308C217.963 215.659 218.936 213.86 219.377 211.905C219.713 210.415 219.726 208.824 219.199 207.39Z"
        fill="white" />
    </mask>
    <g mask="url(#mask8_115_113)">
      <g filter="url(#filter19_f_115_113)">
        <path
          d="M195.231 198.519C194.681 198.549 194.149 198.61 193.606 198.706C190.136 199.323 186.959 201.515 185.168 204.55C183.904 206.693 183.328 209.226 183.512 211.706C183.585 209.964 184.041 208.259 184.887 206.737C186.321 204.156 188.919 202.208 191.824 201.675C193.614 201.347 195.456 201.544 197.262 201.769C198.994 201.984 200.743 202.211 202.449 202.581C205.09 203.153 207.704 204.032 209.918 205.581C210.435 205.942 210.918 206.35 211.324 206.831C211.731 207.312 212.046 207.869 212.168 208.487C212.346 209.392 212.089 210.34 211.637 211.144C211.185 211.947 210.572 212.65 209.918 213.3C209.389 213.826 208.823 214.334 208.262 214.831C210.821 214.335 213.414 213.633 215.543 212.144C216.443 211.514 217.258 210.759 217.793 209.8C218.328 208.841 218.556 207.679 218.293 206.612C218.116 205.893 217.722 205.23 217.231 204.675C216.74 204.12 216.15 203.663 215.543 203.237C212.864 201.36 209.728 200.159 206.481 199.769C204.399 199.386 202.299 199.063 200.199 198.8C198.556 198.594 196.879 198.427 195.231 198.519Z"
          fill="url(#paint6_radial_115_113)" />
      </g>
    </g>
    <mask id="mask9_115_113" style="mask-type:luminance" maskUnits="userSpaceOnUse" x="183" y="199" width="37"
      height="30">
      <path
        d="M219.199 207.39C218.794 206.287 218.081 205.309 217.209 204.521C216.336 203.732 215.308 203.128 214.226 202.669C212.061 201.75 209.705 201.408 207.394 200.973C205.215 200.564 203.053 200.067 200.867 199.696C198.595 199.311 196.249 199.064 194.001 199.571C192.035 200.014 190.217 201.03 188.73 202.389C187.242 203.749 186.08 205.446 185.245 207.28C183.772 210.509 183.31 214.145 183.591 217.683C183.799 220.316 184.466 223.029 186.199 225.022C187.6 226.632 189.587 227.637 191.633 228.243C195.158 229.286 199 229.231 202.494 228.087C208.261 226.156 213.369 222.314 216.824 217.308C217.963 215.659 218.936 213.86 219.377 211.905C219.713 210.415 219.726 208.824 219.199 207.39Z"
        fill="white" />
    </mask>
    <g mask="url(#mask9_115_113)">
      <g filter="url(#filter20_f_115_113)">
        <path
          d="M195.231 198.519C194.681 198.549 194.149 198.61 193.606 198.706C190.136 199.323 186.959 201.515 185.168 204.55C183.904 206.693 183.328 209.226 183.512 211.706C183.585 209.964 184.041 208.259 184.887 206.737C186.321 204.156 188.919 202.208 191.824 201.675C193.614 201.347 195.456 201.544 197.262 201.769C198.994 201.984 200.743 202.211 202.449 202.581C205.09 203.153 207.704 204.032 209.918 205.581C210.435 205.942 210.918 206.35 211.324 206.831C211.731 207.312 212.046 207.869 212.168 208.487C212.346 209.392 212.089 210.34 211.637 211.144C211.185 211.947 210.572 212.65 209.918 213.3C209.389 213.826 208.823 214.334 208.262 214.831C210.821 214.335 213.414 213.633 215.543 212.144C216.443 211.514 217.258 210.759 217.793 209.8C218.328 208.841 218.556 207.679 218.293 206.612C218.116 205.893 217.722 205.23 217.231 204.675C216.74 204.12 216.15 203.663 215.543 203.237C212.864 201.36 209.728 200.159 206.481 199.769C204.399 199.386 202.299 199.063 200.199 198.8C198.556 198.594 196.879 198.427 195.231 198.519Z"
          fill="url(#paint7_linear_115_113)" />
      </g>
    </g>
    <path
      d="M97.2443 44.4249C95.4634 44.5219 93.7597 45.3439 92.4565 46.5616C91.1533 47.7793 90.2351 49.3733 89.6703 51.0652C88.5407 54.4488 88.7948 58.1169 89.0516 61.6749C89.2841 64.8965 89.522 68.1802 90.7284 71.1765C91.3316 72.6746 92.1786 74.0867 93.3087 75.2404C94.4388 76.3941 95.8605 77.2823 97.427 77.6749C98.8959 78.043 100.465 77.9667 101.91 77.5128C103.354 77.0589 104.674 76.2339 105.756 75.1749C107.335 73.6298 108.399 71.6087 109.009 69.4854C109.62 67.3621 109.794 65.1339 109.762 62.9249C109.722 60.1605 109.361 57.3864 108.496 54.7605C107.631 52.1346 106.25 49.6572 104.323 47.6749C103.39 46.7148 102.326 45.8698 101.125 45.2774C99.9239 44.6851 98.5813 44.3521 97.2443 44.4249Z"
      fill="url(#paint8_radial_115_113)" />
    <path
      d="M92.9508 59.1743C92.5787 61.4201 92.5652 63.7763 93.3372 65.9178C93.847 67.3318 94.6876 68.6147 95.7094 69.7171C96.3784 70.439 97.1376 71.0949 98.0251 71.5203C98.9127 71.9457 99.9409 72.1267 100.895 71.887C101.777 71.6658 102.547 71.0984 103.116 70.3898C103.684 69.6813 104.063 68.8369 104.333 67.9695C105.131 65.4088 105.003 62.6079 104.211 60.0453C103.634 58.1783 102.679 56.3774 101.184 55.1185C100.471 54.5179 99.6365 54.0474 98.7295 53.8319C97.8224 53.6164 96.8407 53.6668 95.9919 54.0525C95.0496 54.4807 94.3204 55.2956 93.8429 56.2139C93.3654 57.1322 93.12 58.1532 92.9508 59.1743Z"
      fill="#020204" />
    <mask id="mask10_115_113" style="mask-type:luminance" maskUnits="userSpaceOnUse" x="88" y="44" width="22"
      height="34">
      <path
        d="M97.2443 44.4249C95.4634 44.5219 93.7597 45.3439 92.4565 46.5616C91.1533 47.7793 90.2351 49.3734 89.6703 51.0652C88.5407 54.4488 88.7948 58.1169 89.0516 61.6749C89.2841 64.8965 89.522 68.1802 90.7284 71.1765C91.3316 72.6746 92.1786 74.0867 93.3087 75.2404C94.4388 76.3941 95.8605 77.2823 97.427 77.6749C98.8959 78.043 100.465 77.9667 101.91 77.5128C103.354 77.0589 104.674 76.2339 105.756 75.1749C107.335 73.6298 108.399 71.6087 109.009 69.4854C109.62 67.3621 109.794 65.1339 109.762 62.9249C109.722 60.1605 109.361 57.3864 108.496 54.7605C107.631 52.1346 106.25 49.6572 104.323 47.6749C103.39 46.7148 102.326 45.8698 101.125 45.2774C99.9239 44.6851 98.5813 44.3521 97.2443 44.4249Z"
        fill="white" />
    </mask>
    <g mask="url(#mask10_115_113)">
      <path
        d="M93.404 51.5899C96.0893 49.9906 99.359 49.6195 102.471 49.9142C105.582 50.2089 108.596 51.1227 111.612 51.9435C113.824 52.5453 116.064 53.1049 118.137 54.0812C120.211 55.0575 122.137 56.4969 123.279 58.4842C123.462 58.803 123.624 59.1339 123.818 59.4462C124.012 59.7585 124.242 60.0549 124.535 60.2765C124.828 60.4981 125.192 60.6408 125.559 60.6207C125.743 60.6107 125.925 60.5598 126.083 60.4669C126.242 60.3739 126.376 60.2381 126.461 60.0752C126.559 59.8878 126.589 59.6707 126.578 59.4596C126.567 59.2485 126.517 59.0416 126.461 58.8377C125.706 56.0848 123.926 53.7494 122.572 51.2363C121.76 49.7282 121.095 48.1436 120.274 46.6401C117.456 41.48 112.83 37.4245 107.573 34.7928C102.315 32.1611 96.4452 30.8967 90.5755 30.5535C83.7744 30.1558 76.9558 30.9629 70.2462 32.1445C67.3376 32.6567 64.3854 33.2596 61.8105 34.706C60.5231 35.4292 59.3431 36.3626 58.4221 37.5169C57.501 38.6711 56.8456 40.0521 56.6344 41.5136C56.4309 42.9222 56.6432 44.3742 57.1357 45.7094C57.6282 47.0447 58.394 48.2679 59.2922 49.3718C61.0888 51.5795 63.3929 53.3054 65.5147 55.2027C67.636 57.0996 69.6047 59.1948 71.9776 60.7655C73.1641 61.5509 74.4503 62.2005 75.821 62.5822C77.1917 62.9639 78.6509 63.0714 80.0448 62.7858C81.4898 62.4897 82.8275 61.7808 83.9985 60.8838C85.1694 59.9868 86.1846 58.9037 87.1469 57.7859C89.0715 55.5501 90.8694 53.0994 93.404 51.5899Z"
        fill="url(#paint9_radial_115_113)" />
    </g>
    <path
      d="M128.762 44.4249C125.981 46.3351 123.651 48.9998 122.512 52.1749C121.076 56.1765 121.626 60.6556 123.012 64.6749C124.431 68.7918 126.806 72.7159 130.391 75.1872C132.184 76.4229 134.259 77.2702 136.422 77.5258C138.584 77.7814 140.831 77.4309 142.762 76.4249C145.115 75.1989 146.91 73.0521 148.024 70.6441C149.138 68.2361 149.613 65.574 149.762 62.9249C149.952 59.5494 149.621 56.1184 148.512 52.9249C147.307 49.4558 145.122 46.2543 142.039 44.2583C140.498 43.2603 138.747 42.5747 136.928 42.3231C135.109 42.0716 133.223 42.2598 131.512 42.9249C130.536 43.3039 129.624 43.8323 128.762 44.4249Z"
      fill="url(#paint10_radial_115_113)" />
    <path
      d="M135.173 52.8197C134.128 52.8946 133.109 53.2515 132.222 53.8099C131.335 54.3684 130.579 55.1252 129.985 55.9889C128.798 57.7165 128.276 59.8357 128.192 61.9303C128.129 63.5026 128.303 65.0954 128.825 66.5801C129.346 68.0647 130.225 69.4389 131.437 70.4426C132.677 71.4697 134.254 72.0862 135.862 72.1635C137.47 72.2408 139.102 71.7769 140.423 70.8569C141.476 70.124 142.325 69.1153 142.93 67.9838C143.534 66.8523 143.899 65.6003 144.065 64.3283C144.359 62.0815 144.027 59.7354 142.988 57.7214C141.95 55.7073 140.188 54.0487 138.061 53.2653C137.141 52.926 136.152 52.7495 135.173 52.8197Z"
      fill="#020204" />
    <g filter="url(#filter21_f_115_113)">
      <path
        d="M137.668 59.6749C136.802 60.0165 135.432 59.8017 135.052 60.6516C134.827 61.1552 135.145 61.9841 135.655 62.1922C136.688 62.6128 138.287 61.8511 138.704 60.8171C138.885 60.368 138.611 59.6561 138.164 59.4685C137.999 59.3991 137.835 59.6092 137.668 59.6749Z"
        fill="#141413" />
    </g>
    <mask id="mask11_115_113" style="mask-type:luminance" maskUnits="userSpaceOnUse" x="121" y="42" width="29"
      height="36">
      <path
        d="M128.762 44.4249C125.981 46.3351 123.651 48.9998 122.512 52.1749C121.076 56.1765 121.626 60.6556 123.012 64.6749C124.431 68.7918 126.806 72.7159 130.391 75.1872C132.184 76.4229 134.259 77.2702 136.422 77.5258C138.584 77.7814 140.831 77.4309 142.762 76.4249C145.115 75.1989 146.91 73.0521 148.024 70.6441C149.138 68.2361 149.613 65.574 149.762 62.9249C149.952 59.5494 149.621 56.1184 148.512 52.9249C147.307 49.4558 145.122 46.2543 142.039 44.2583C140.498 43.2603 138.747 42.5747 136.928 42.3231C135.109 42.0716 133.223 42.2598 131.512 42.9249C130.536 43.3039 129.624 43.8323 128.762 44.4249Z"
        fill="white" />
    </mask>
    <g mask="url(#mask11_115_113)">
      <path
        d="M118.262 54.5499C120.646 52.5697 123.423 51.0651 126.383 50.1498C132.469 48.2683 139.383 49.0127 144.762 52.4249C146.619 53.6029 148.274 55.0668 150.001 56.4285C151.728 57.7903 153.562 59.0698 155.637 59.7999C156.758 60.1943 157.955 60.4233 159.137 60.2999C160.205 60.1883 161.236 59.7881 162.121 59.1807C163.006 58.5733 163.746 57.7622 164.302 56.8439C165.414 55.0072 165.772 52.7793 165.58 50.6409C165.197 46.364 162.785 42.5875 160.762 38.7999C160.128 37.6139 159.525 36.4065 158.762 35.2999C156.419 31.9037 152.689 29.6642 148.777 28.3519C144.865 27.0396 140.731 26.5655 136.637 26.0499C134.811 25.8199 132.964 25.5799 131.137 25.7999C129.037 26.0527 127.061 26.9009 125.012 27.4249C124.039 27.6736 123.048 27.8496 122.084 28.1288C121.119 28.4079 120.171 28.7978 119.387 29.4249C118.242 30.3405 117.522 31.7157 117.21 33.1482C116.899 34.5807 116.97 36.0727 117.199 37.5207C117.657 40.4166 118.74 43.2447 118.637 46.1749C118.566 48.1871 117.935 50.1628 118.012 52.1749C118.035 52.7647 118.118 53.3522 118.262 53.9249"
        fill="url(#paint11_linear_115_113)" />
    </g>
    <path
      d="M105.613 67.9248C107.38 65.9382 108.589 63.5143 110.287 61.4681C111.136 60.4449 112.115 59.5127 113.268 58.8512C114.422 58.1898 115.76 57.8101 117.085 57.9248C118.559 58.0525 119.939 58.7871 121.019 59.7996C122.098 60.812 122.899 62.0898 123.538 63.4248C124.149 64.7032 124.635 66.0651 125.517 67.1748C126.457 68.3588 127.776 69.167 128.968 70.0977C129.564 70.5631 130.135 71.0668 130.606 71.6582C131.077 72.2496 131.446 72.9342 131.597 73.6748C131.751 74.427 131.674 75.2199 131.412 75.9414C131.15 76.6629 130.705 77.3131 130.152 77.8457C129.047 78.9108 127.539 79.4852 126.019 79.7003C122.978 80.1305 119.904 79.2245 116.834 79.3089C113.727 79.3943 110.693 80.4926 107.587 80.379C106.034 80.3222 104.459 79.9427 103.183 79.056C102.544 78.6126 101.989 78.0454 101.587 77.3804C101.185 76.7153 100.94 75.9514 100.914 75.1748C100.889 74.4339 101.062 73.694 101.358 73.0143C101.654 72.3346 102.071 71.7125 102.54 71.1388C103.479 69.9912 104.627 69.0326 105.613 67.9248Z"
      fill="url(#paint12_radial_115_113)" />
    <path
      d="M88.7636 87.0942C88.825 87.3896 88.9361 87.6746 89.0907 87.9337C89.3564 88.379 89.7446 88.74 90.1639 89.0451C90.5832 89.3502 91.0367 89.6046 91.4758 89.8806C93.8094 91.3475 95.7111 93.4096 97.4005 95.5876C99.667 98.5098 101.672 101.753 104.7 103.877C106.838 105.376 109.396 106.232 111.994 106.493C115.045 106.799 118.134 106.307 121.076 105.441C123.802 104.638 126.439 103.511 128.858 102.019C133.456 99.1832 137.297 95.0264 142.368 93.162C143.475 92.755 144.627 92.4638 145.694 91.9618C146.762 91.4597 147.766 90.7077 148.275 89.6441C148.765 88.6217 148.746 87.4416 148.906 86.3191C149.077 85.1183 149.46 83.9573 149.67 82.7627C149.88 81.5681 149.905 80.2904 149.388 79.193C148.961 78.2842 148.183 77.5651 147.289 77.1082C146.394 76.6513 145.387 76.4438 144.384 76.3945C142.378 76.296 140.397 76.8097 138.396 76.9923C135.747 77.2343 133.078 76.8942 130.419 76.9734C127.111 77.072 123.85 77.818 120.545 77.9784C116.773 78.1613 113.01 77.5799 109.237 77.427C107.603 77.3608 105.957 77.3758 104.345 77.6523C102.733 77.9288 101.15 78.4759 99.8042 79.4052C98.4928 80.3107 97.4483 81.5454 96.2441 82.5892C95.6419 83.1111 94.9946 83.5885 94.2778 83.9366C93.561 84.2847 92.7703 84.5006 91.9736 84.4837C91.564 84.4747 91.1428 84.4068 90.7523 84.5309C90.5084 84.6084 90.2918 84.7579 90.1088 84.9368C89.9257 85.1157 89.774 85.3239 89.631 85.5361C89.2985 86.0297 89.0079 86.5515 88.7636 87.0942Z"
      fill="url(#paint13_radial_115_113)" />
    <g filter="url(#filter22_f_115_113)">
      <path
        d="M103.569 91.1601C103.182 92.7562 103.417 94.4942 104.212 95.9308C105.008 97.3674 106.357 98.4883 107.915 99.0076C109.892 99.6668 112.121 99.3439 113.969 98.3794C115.041 97.8204 116.02 97.0336 116.639 95.9952C116.948 95.476 117.163 94.8981 117.243 94.2993C117.324 93.7004 117.268 93.0808 117.058 92.5141C116.829 91.8929 116.418 91.3456 115.912 90.9181C115.406 90.4906 114.808 90.1803 114.179 89.9724C112.921 89.5567 111.568 89.5484 110.245 89.6119C108.24 89.7082 106.242 89.9603 104.276 90.3651"
        fill="#D9B30D" />
    </g>
    <g filter="url(#filter23_f_115_113)">
      <path
        d="M97.0782 78.7426C95.7392 79.5341 94.4496 80.4063 93.1807 81.3058C92.524 81.7713 91.8465 82.2747 91.5001 83.0014C91.2546 83.5163 91.1984 84.1004 91.1905 84.6708C91.1827 85.2413 91.2194 85.8148 91.1444 86.3804C91.0931 86.7666 90.99 87.1466 90.9728 87.5358C90.9642 87.7304 90.9775 87.9273 91.0288 88.1152C91.0802 88.3031 91.1707 88.4822 91.3043 88.6241C91.4769 88.8072 91.7123 88.92 91.953 88.9934C92.1937 89.0668 92.4436 89.1046 92.6886 89.1621C93.8633 89.4382 94.8855 90.1589 95.7827 90.9658C96.6799 91.7727 97.4856 92.6807 98.4216 93.4422C100.959 95.5067 104.312 96.361 107.583 96.4148C110.853 96.4686 114.087 95.7841 117.278 95.0653C119.784 94.5008 122.293 93.9106 124.703 93.0218C128.406 91.6564 131.844 89.5901 134.822 86.9998C136.172 85.8254 137.439 84.5362 138.954 83.5846C140.295 82.7425 141.797 82.1866 143.16 81.3819C143.282 81.3099 143.404 81.2357 143.513 81.1453C143.621 81.0548 143.718 80.9472 143.781 80.8205C143.891 80.6016 143.891 80.3393 143.82 80.105C143.75 79.8707 143.614 79.6611 143.46 79.4707C143.29 79.2601 143.097 79.0691 142.891 78.8932C141.467 77.6739 139.535 77.2307 137.666 77.0825C135.797 76.9343 133.905 77.0391 132.056 76.7301C130.317 76.4396 128.662 75.7913 126.984 75.2528C125.222 74.6875 123.421 74.2403 121.595 73.9424C117.3 73.2417 112.878 73.376 108.617 74.263C104.56 75.1079 100.646 76.6336 97.0782 78.7426Z"
        fill="#604405" />
    </g>
    <path
      d="M96.6513 74.2168C94.7219 75.5154 92.9852 77.0997 91.5153 78.902C90.6746 79.9328 89.9116 81.0528 89.4882 82.3138C89.1552 83.3057 89.0417 84.3554 88.8319 85.3804C88.7533 85.7643 88.6605 86.1496 88.6621 86.5416C88.663 86.7375 88.6878 86.9344 88.7486 87.1207C88.8094 87.307 88.9069 87.4827 89.0427 87.624C89.2673 87.858 89.5831 87.985 89.9008 88.0504C90.2185 88.1157 90.5446 88.1255 90.8668 88.1621C92.3215 88.3275 93.6613 89.0341 94.8672 89.8643C96.073 90.6945 97.1843 91.6597 98.4216 92.4422C101.155 94.1712 104.416 94.9405 107.648 95.0651C110.881 95.1896 114.106 94.6987 117.278 94.0653C119.799 93.562 122.312 92.9646 124.703 92.0218C128.366 90.5779 131.667 88.3548 134.822 85.9998C136.255 84.9301 137.668 83.8267 138.954 82.5846C139.391 82.163 139.813 81.7251 140.282 81.3391C140.75 80.953 141.27 80.6173 141.848 80.4314C142.728 80.148 143.683 80.2294 144.596 80.3819C145.283 80.4968 145.972 80.6509 146.668 80.6232C147.016 80.6093 147.365 80.549 147.688 80.4195C148.012 80.2899 148.31 80.0892 148.532 79.8205C148.823 79.4673 148.971 79.006 148.973 78.5482C148.975 78.0903 148.834 77.6372 148.602 77.2427C148.137 76.4536 147.334 75.9196 146.497 75.5476C145.351 75.0382 144.111 74.7863 142.892 74.4919C139.146 73.5876 135.507 72.2514 132.056 70.5381C130.34 69.6863 128.672 68.7425 126.984 67.8377C125.248 66.9075 123.479 66.0136 121.595 65.4423C117.382 64.1652 112.776 64.5841 108.617 66.0284C103.998 67.6329 99.82 70.4916 96.6513 74.2168Z"
      fill="url(#paint14_linear_115_113)" />
    <g filter="url(#filter24_f_115_113)">
      <path
        d="M126.25 75.1426C126.024 74.8564 125.699 74.6546 125.349 74.5516C124.999 74.4485 124.624 74.4412 124.265 74.5028C123.545 74.626 122.9 75.0133 122.299 75.4273C120.59 76.6038 119.08 78.0555 117.762 79.657C116.016 81.777 114.577 84.2288 114.094 86.9319C114.013 87.3874 113.959 87.8533 114.016 88.3124C114.073 88.7716 114.249 89.2272 114.575 89.5556C114.861 89.844 115.25 90.0199 115.652 90.0776C116.055 90.1354 116.468 90.0796 116.853 89.9493C117.623 89.6891 118.262 89.1499 118.868 88.608C122.204 85.6225 125.22 82.0403 126.427 77.7292C126.548 77.2966 126.651 76.8536 126.648 76.4044C126.646 75.9551 126.529 75.4949 126.25 75.1426Z"
        fill="#F6DA4A" />
    </g>
    <g opacity="0.8" filter="url(#filter25_f_115_113)">
      <path
        d="M118.263 68.9525C118.495 69.6949 119.691 69.5719 120.382 69.9279C120.989 70.2404 121.477 70.9252 122.159 70.9449C122.81 70.9637 123.823 70.7194 123.907 70.0738C124.019 69.2207 122.774 68.6787 121.972 68.3661C120.941 67.964 119.619 67.7599 118.651 68.2979C118.43 68.4212 118.188 68.7103 118.263 68.9525Z"
        fill="url(#paint15_radial_115_113)" />
    </g>
    <g opacity="0.8" filter="url(#filter26_f_115_113)">
      <path
        d="M106.839 68.5327C105.951 68.2442 104.482 69.8102 104.961 70.6116C105.093 70.8316 105.496 71.1107 105.767 70.9615C106.177 70.7365 106.511 69.9319 106.955 69.6165C107.251 69.4059 107.185 68.645 106.839 68.5327Z"
        fill="url(#paint16_radial_115_113)" />
    </g>
    <mask id="mask12_115_113" style="mask-type:luminance" maskUnits="userSpaceOnUse" x="88" y="64" width="62"
      height="43">
      <path
        d="M116.735 64.6866C113.991 64.6245 111.217 65.1256 108.618 66.0284C103.998 67.6328 99.8194 70.4907 96.6507 74.2159C94.7213 75.5145 92.9858 77.0991 91.516 78.9014C90.6753 79.9322 89.912 81.0525 89.4886 82.3135C89.1556 83.3053 89.0422 84.3549 88.8323 85.3799C88.7538 85.7639 88.6608 86.1501 88.6624 86.542C88.6632 86.738 88.6876 86.9338 88.7483 87.1201C88.7664 87.1754 88.7941 87.2275 88.8187 87.2803C88.8835 87.5085 88.9687 87.7309 89.0902 87.9346C89.3559 88.3799 89.7451 88.7408 90.1644 89.0459C90.5837 89.351 91.0359 89.6039 91.4749 89.8799C93.8086 91.3469 95.7113 93.4089 97.4007 95.5869C99.6673 98.5091 101.672 101.752 104.7 103.876C106.837 105.376 109.396 106.232 111.994 106.493C115.046 106.8 118.135 106.307 121.076 105.44C123.803 104.638 126.439 103.51 128.858 102.019C133.456 99.1827 137.297 95.0255 142.368 93.1612C143.475 92.7541 144.626 92.464 145.694 91.9619C146.761 91.4599 147.766 90.7072 148.276 89.6436C148.766 88.6212 148.747 87.4418 148.907 86.3194C149.077 85.1185 149.46 83.9573 149.67 82.7627C149.88 81.5682 149.906 80.2898 149.389 79.1924C149.274 78.9489 149.131 78.7218 148.971 78.5069C148.965 78.063 148.827 77.6259 148.602 77.2432C148.137 76.4542 147.333 75.9198 146.496 75.5479C145.35 75.0385 144.11 74.7856 142.891 74.4912C139.146 73.587 135.506 72.2514 132.055 70.5381C130.339 69.6864 128.673 68.7418 126.985 67.837C125.249 66.9067 123.479 66.0136 121.594 65.4424C120.014 64.9635 118.381 64.7238 116.735 64.6866Z"
        fill="white" />
    </mask>
    <g mask="url(#mask12_115_113)">
      <g filter="url(#filter27_f_115_113)">
        <path
          d="M149.25 80.2412C149.198 80.7053 149.073 81.1649 148.881 81.5937C148.689 82.0225 148.435 82.4122 148.133 82.7404C147.831 83.0686 147.487 83.3289 147.12 83.5065C146.753 83.6842 146.372 83.7756 145.996 83.7756C145.238 83.7756 144.553 83.4032 144.092 82.7404C143.63 82.0775 143.43 81.1786 143.535 80.2412C143.587 79.777 143.712 79.3175 143.904 78.8886C144.096 78.4598 144.35 78.0702 144.652 77.742C144.954 77.4138 145.298 77.1534 145.665 76.9758C146.032 76.7982 146.413 76.7068 146.789 76.7068C147.164 76.7068 147.525 76.7982 147.852 76.9758C148.179 77.1534 148.465 77.4138 148.693 77.742C148.922 78.0702 149.089 78.4598 149.184 78.8886C149.28 79.3175 149.302 79.777 149.25 80.2412Z"
          fill="url(#paint17_linear_115_113)" />
      </g>
    </g>
  </g>
  <defs>
    <filter id="filter0_f_115_113" x="64.8847" y="122.057" width="38.4709" height="36.1731" filterUnits="userSpaceOnUse"
      color-interpolation-filters="sRGB">
      <feFlood flood-opacity="0" result="BackgroundImageFix" />
      <feBlend mode="normal" in="SourceGraphic" in2="BackgroundImageFix" result="shape" />
      <feGaussianBlur stdDeviation="0.691268" result="effect1_foregroundBlur_115_113" />
    </filter>
    <filter id="filter1_f_115_113" x="117.58" y="118.538" width="58.3356" height="41.8363" filterUnits="userSpaceOnUse"
      color-interpolation-filters="sRGB">
      <feFlood flood-opacity="0" result="BackgroundImageFix" />
      <feBlend mode="normal" in="SourceGraphic" in2="BackgroundImageFix" result="shape" />
      <feGaussianBlur stdDeviation="1.13832" result="effect1_foregroundBlur_115_113" />
    </filter>
    <filter id="filter2_f_115_113" x="96.9449" y="123.532" width="24.8327" height="26.3345" filterUnits="userSpaceOnUse"
      color-interpolation-filters="sRGB">
      <feFlood flood-opacity="0" result="BackgroundImageFix" />
      <feBlend mode="normal" in="SourceGraphic" in2="BackgroundImageFix" result="shape" />
      <feGaussianBlur stdDeviation="0.78546" result="effect1_foregroundBlur_115_113" />
    </filter>
    <filter id="filter3_f_115_113" x="96.73" y="156.251" width="10.036" height="65.8148" filterUnits="userSpaceOnUse"
      color-interpolation-filters="sRGB">
      <feFlood flood-opacity="0" result="BackgroundImageFix" />
      <feBlend mode="normal" in="SourceGraphic" in2="BackgroundImageFix" result="shape" />
      <feGaussianBlur stdDeviation="1.44631" result="effect1_foregroundBlur_115_113" />
    </filter>
    <filter id="filter4_f_115_113" x="76.131" y="110.455" width="6.74068" height="6.86907" filterUnits="userSpaceOnUse"
      color-interpolation-filters="sRGB">
      <feFlood flood-opacity="0" result="BackgroundImageFix" />
      <feBlend mode="normal" in="SourceGraphic" in2="BackgroundImageFix" result="shape" />
      <feGaussianBlur stdDeviation="0.639753" result="effect1_foregroundBlur_115_113" />
    </filter>
    <filter id="filter5_f_115_113" x="177.955" y="147.697" width="19.2462" height="19.4521" filterUnits="userSpaceOnUse"
      color-interpolation-filters="sRGB">
      <feFlood flood-opacity="0" result="BackgroundImageFix" />
      <feBlend mode="normal" in="SourceGraphic" in2="BackgroundImageFix" result="shape" />
      <feGaussianBlur stdDeviation="2.29216" result="effect1_foregroundBlur_115_113" />
    </filter>
    <filter id="filter6_f_115_113" x="133.441" y="8.7233" width="24.4922" height="23.6334" filterUnits="userSpaceOnUse"
      color-interpolation-filters="sRGB">
      <feFlood flood-opacity="0" result="BackgroundImageFix" />
      <feBlend mode="normal" in="SourceGraphic" in2="BackgroundImageFix" result="shape" />
      <feGaussianBlur stdDeviation="2.00523" result="effect1_foregroundBlur_115_113" />
    </filter>
    <filter id="filter7_f_115_113" x="157.166" y="86.7361" width="15.7805" height="17.1642" filterUnits="userSpaceOnUse"
      color-interpolation-filters="sRGB">
      <feFlood flood-opacity="0" result="BackgroundImageFix" />
      <feBlend mode="normal" in="SourceGraphic" in2="BackgroundImageFix" result="shape" />
      <feGaussianBlur stdDeviation="0.900832" result="effect1_foregroundBlur_115_113" />
    </filter>
    <filter id="filter8_f_115_113" x="85.0798" y="78.0419" width="72.1032" height="45.956" filterUnits="userSpaceOnUse"
      color-interpolation-filters="sRGB">
      <feFlood flood-opacity="0" result="BackgroundImageFix" />
      <feBlend mode="normal" in="SourceGraphic" in2="BackgroundImageFix" result="shape" />
      <feGaussianBlur stdDeviation="2.0355" result="effect1_foregroundBlur_115_113" />
    </filter>
    <filter id="filter9_f_115_113" x="86.7993" y="77.5268" width="64.7991" height="31.3938" filterUnits="userSpaceOnUse"
      color-interpolation-filters="sRGB">
      <feFlood flood-opacity="0" result="BackgroundImageFix" />
      <feBlend mode="normal" in="SourceGraphic" in2="BackgroundImageFix" result="shape" />
      <feGaussianBlur stdDeviation="0.894024" result="effect1_foregroundBlur_115_113" />
    </filter>
    <filter id="filter10_f_115_113" x="171.065" y="135.353" width="33.5656" height="86.4882"
      filterUnits="userSpaceOnUse" color-interpolation-filters="sRGB">
      <feFlood flood-opacity="0" result="BackgroundImageFix" />
      <feBlend mode="normal" in="SourceGraphic" in2="BackgroundImageFix" result="shape" />
      <feGaussianBlur stdDeviation="1.36425" result="effect1_foregroundBlur_115_113" />
    </filter>
    <filter id="filter11_f_115_113" x="43.054" y="141.958" width="31.4233" height="68.2106" filterUnits="userSpaceOnUse"
      color-interpolation-filters="sRGB">
      <feFlood flood-opacity="0" result="BackgroundImageFix" />
      <feBlend mode="normal" in="SourceGraphic" in2="BackgroundImageFix" result="shape" />
      <feGaussianBlur stdDeviation="1.1322" result="effect1_foregroundBlur_115_113" />
    </filter>
    <filter id="filter12_f_115_113" x="153.248" y="214.209" width="80.3725" height="86.6833"
      filterUnits="userSpaceOnUse" color-interpolation-filters="sRGB">
      <feFlood flood-opacity="0" result="BackgroundImageFix" />
      <feBlend mode="normal" in="SourceGraphic" in2="BackgroundImageFix" result="shape" />
      <feGaussianBlur stdDeviation="2.23866" result="effect1_foregroundBlur_115_113" />
    </filter>
    <filter id="filter13_f_115_113" x="157.525" y="199.8" width="98.2025" height="99.3178" filterUnits="userSpaceOnUse"
      color-interpolation-filters="sRGB">
      <feFlood flood-opacity="0" result="BackgroundImageFix" />
      <feBlend mode="normal" in="SourceGraphic" in2="BackgroundImageFix" result="shape" />
      <feGaussianBlur stdDeviation="4.77872" result="effect1_foregroundBlur_115_113" />
    </filter>
    <filter id="filter14_f_115_113" x="162.788" y="195.799" width="90.5436" height="90.1561"
      filterUnits="userSpaceOnUse" color-interpolation-filters="sRGB">
      <feFlood flood-opacity="0" result="BackgroundImageFix" />
      <feBlend mode="normal" in="SourceGraphic" in2="BackgroundImageFix" result="shape" />
      <feGaussianBlur stdDeviation="3.76514" result="effect1_foregroundBlur_115_113" />
    </filter>
    <filter id="filter15_f_115_113" x="-4.0411" y="197.478" width="103.287" height="102.49" filterUnits="userSpaceOnUse"
      color-interpolation-filters="sRGB">
      <feFlood flood-opacity="0" result="BackgroundImageFix" />
      <feBlend mode="normal" in="SourceGraphic" in2="BackgroundImageFix" result="shape" />
      <feGaussianBlur stdDeviation="3.92372" result="effect1_foregroundBlur_115_113" />
    </filter>
    <filter id="filter16_f_115_113" x="1.99647" y="196.693" width="87.2499" height="92.0225"
      filterUnits="userSpaceOnUse" color-interpolation-filters="sRGB">
      <feFlood flood-opacity="0" result="BackgroundImageFix" />
      <feBlend mode="normal" in="SourceGraphic" in2="BackgroundImageFix" result="shape" />
      <feGaussianBlur stdDeviation="2.4146" result="effect1_foregroundBlur_115_113" />
    </filter>
    <filter id="filter17_f_115_113" x="175.305" y="207.5" width="45.425" height="40.5402" filterUnits="userSpaceOnUse"
      color-interpolation-filters="sRGB">
      <feFlood flood-opacity="0" result="BackgroundImageFix" />
      <feBlend mode="normal" in="SourceGraphic" in2="BackgroundImageFix" result="shape" />
      <feGaussianBlur stdDeviation="2.84444" result="effect1_foregroundBlur_115_113" />
    </filter>
    <filter id="filter18_f_115_113" x="178.789" y="209.078" width="38.4576" height="25.4926"
      filterUnits="userSpaceOnUse" color-interpolation-filters="sRGB">
      <feFlood flood-opacity="0" result="BackgroundImageFix" />
      <feBlend mode="normal" in="SourceGraphic" in2="BackgroundImageFix" result="shape" />
      <feGaussianBlur stdDeviation="1.10259" result="effect1_foregroundBlur_115_113" />
    </filter>
    <filter id="filter19_f_115_113" x="181.428" y="196.442" width="39.0249" height="20.4392"
      filterUnits="userSpaceOnUse" color-interpolation-filters="sRGB">
      <feFlood flood-opacity="0" result="BackgroundImageFix" />
      <feBlend mode="normal" in="SourceGraphic" in2="BackgroundImageFix" result="shape" />
      <feGaussianBlur stdDeviation="1.02524" result="effect1_foregroundBlur_115_113" />
    </filter>
    <filter id="filter20_f_115_113" x="181.428" y="196.442" width="39.0249" height="20.4392"
      filterUnits="userSpaceOnUse" color-interpolation-filters="sRGB">
      <feFlood flood-opacity="0" result="BackgroundImageFix" />
      <feBlend mode="normal" in="SourceGraphic" in2="BackgroundImageFix" result="shape" />
      <feGaussianBlur stdDeviation="1.02524" result="effect1_foregroundBlur_115_113" />
    </filter>
    <filter id="filter21_f_115_113" x="134.481" y="58.9568" width="4.77769" height="3.85123"
      filterUnits="userSpaceOnUse" color-interpolation-filters="sRGB">
      <feFlood flood-opacity="0" result="BackgroundImageFix" />
      <feBlend mode="normal" in="SourceGraphic" in2="BackgroundImageFix" result="shape" />
      <feGaussianBlur stdDeviation="0.248911" result="effect1_foregroundBlur_115_113" />
    </filter>
    <filter id="filter22_f_115_113" x="101.589" y="87.7856" width="17.4864" height="13.3652"
      filterUnits="userSpaceOnUse" color-interpolation-filters="sRGB">
      <feFlood flood-opacity="0" result="BackgroundImageFix" />
      <feBlend mode="normal" in="SourceGraphic" in2="BackgroundImageFix" result="shape" />
      <feGaussianBlur stdDeviation="0.898587" result="effect1_foregroundBlur_115_113" />
    </filter>
    <filter id="filter23_f_115_113" x="89.454" y="71.9787" width="55.9316" height="25.9555" filterUnits="userSpaceOnUse"
      color-interpolation-filters="sRGB">
      <feFlood flood-opacity="0" result="BackgroundImageFix" />
      <feBlend mode="normal" in="SourceGraphic" in2="BackgroundImageFix" result="shape" />
      <feGaussianBlur stdDeviation="0.758214" result="effect1_foregroundBlur_115_113" />
    </filter>
    <filter id="filter24_f_115_113" x="112.295" y="72.766" width="16.0513" height="19.0319" filterUnits="userSpaceOnUse"
      color-interpolation-filters="sRGB">
      <feFlood flood-opacity="0" result="BackgroundImageFix" />
      <feBlend mode="normal" in="SourceGraphic" in2="BackgroundImageFix" result="shape" />
      <feGaussianBlur stdDeviation="0.848788" result="effect1_foregroundBlur_115_113" />
    </filter>
    <filter id="filter25_f_115_113" x="118.028" y="67.7515" width="6.10692" height="3.41514"
      filterUnits="userSpaceOnUse" color-interpolation-filters="sRGB">
      <feFlood flood-opacity="0" result="BackgroundImageFix" />
      <feBlend mode="normal" in="SourceGraphic" in2="BackgroundImageFix" result="shape" />
      <feGaussianBlur stdDeviation="0.110393" result="effect1_foregroundBlur_115_113" />
    </filter>
    <filter id="filter26_f_115_113" x="104.646" y="68.2769" width="2.71681" height="2.94743"
      filterUnits="userSpaceOnUse" color-interpolation-filters="sRGB">
      <feFlood flood-opacity="0" result="BackgroundImageFix" />
      <feBlend mode="normal" in="SourceGraphic" in2="BackgroundImageFix" result="shape" />
      <feGaussianBlur stdDeviation="0.110393" result="effect1_foregroundBlur_115_113" />
    </filter>
    <filter id="filter27_f_115_113" x="142.824" y="76.0235" width="7.13609" height="8.43528"
      filterUnits="userSpaceOnUse" color-interpolation-filters="sRGB">
      <feFlood flood-opacity="0" result="BackgroundImageFix" />
      <feBlend mode="normal" in="SourceGraphic" in2="BackgroundImageFix" result="shape" />
      <feGaussianBlur stdDeviation="0.341623" result="effect1_foregroundBlur_115_113" />
    </filter>
    <radialGradient id="paint0_radial_115_113" cx="0" cy="0" r="1" gradientUnits="userSpaceOnUse"
      gradientTransform="translate(70.2432 140.632) rotate(180) scale(22.0832 20.9093)">
      <stop />
      <stop offset="1" stop-opacity="0.248869" />
    </radialGradient>
    <radialGradient id="paint1_radial_115_113" cx="0" cy="0" r="1" gradientUnits="userSpaceOnUse"
      gradientTransform="translate(145.157 152.714) scale(27.3912 20.9093)">
      <stop />
      <stop offset="1" stop-opacity="0.248869" />
    </radialGradient>
    <radialGradient id="paint2_radial_115_113" cx="0" cy="0" r="1" gradientUnits="userSpaceOnUse"
      gradientTransform="translate(108.566 147.924) scale(10.8454 11.5963)">
      <stop />
      <stop offset="1" stop-opacity="0.248869" />
    </radialGradient>
    <linearGradient id="paint3_linear_115_113" x1="169.744" y1="245.963" x2="173.348" y2="273.574"
      gradientUnits="userSpaceOnUse">
      <stop />
      <stop offset="1" stop-opacity="0" />
    </linearGradient>
    <radialGradient id="paint4_radial_115_113" cx="0" cy="0" r="1" gradientUnits="userSpaceOnUse"
      gradientTransform="translate(196.183 225.733) rotate(15) scale(22.815 23.9489)">
      <stop stop-color="#110800" />
      <stop offset="0.590667" stop-color="#A65A00" stop-opacity="0.8" />
      <stop offset="1" stop-color="#FF921E" stop-opacity="0" />
    </radialGradient>
    <radialGradient id="paint5_radial_115_113" cx="0" cy="0" r="1" gradientUnits="userSpaceOnUse"
      gradientTransform="translate(196.183 220.352) rotate(10.9628) scale(22.4473 17.5969)">
      <stop stop-color="#110800" />
      <stop offset="0.590667" stop-color="#A65A00" stop-opacity="0.8" />
      <stop offset="1" stop-color="#FF921E" stop-opacity="0" />
    </radialGradient>
    <radialGradient id="paint6_radial_115_113" cx="0" cy="0" r="1" gradientUnits="userSpaceOnUse"
      gradientTransform="translate(213.44 205.037) rotate(23.5217) scale(8.06922 3.72923)">
      <stop stop-color="#7C7C7C" />
      <stop offset="1" stop-color="#7C7C7C" stop-opacity="0.329412" />
    </radialGradient>
    <linearGradient id="paint7_linear_115_113" x1="191.512" y1="201.425" x2="194.512" y2="201.3"
      gradientUnits="userSpaceOnUse">
      <stop stop-color="#7C7C7C" />
      <stop offset="1" stop-color="#7C7C7C" stop-opacity="0.329412" />
    </linearGradient>
    <radialGradient id="paint8_radial_115_113" cx="0" cy="0" r="1" gradientUnits="userSpaceOnUse"
      gradientTransform="translate(99.6093 59.6611) rotate(-2.41003) scale(11.8904 18.188)">
      <stop stop-color="#FEFEFC" />
      <stop offset="0.757339" stop-color="#FEFEFC" />
      <stop offset="1" stop-color="#D4D4D4" />
    </radialGradient>
    <radialGradient id="paint9_radial_115_113" cx="0" cy="0" r="1" gradientUnits="userSpaceOnUse"
      gradientTransform="translate(97.7562 50.7651) rotate(-9.34942) scale(7.2487 6.69987)">
      <stop stop-color="#C8C8C8" />
      <stop offset="1" stop-color="#797978" />
    </radialGradient>
    <radialGradient id="paint10_radial_115_113" cx="0" cy="0" r="1" gradientUnits="userSpaceOnUse"
      gradientTransform="translate(136.24 59.6611) rotate(-1.81001) scale(15.8301 18.1951)">
      <stop stop-color="#FEFEFC" />
      <stop offset="0.757339" stop-color="#FEFEFC" />
      <stop offset="1" stop-color="#D4D4D4" />
    </radialGradient>
    <linearGradient id="paint11_linear_115_113" x1="130.262" y1="42.0499" x2="151.637" y2="54.5499"
      gradientUnits="userSpaceOnUse">
      <stop stop-color="#747474" />
      <stop offset="0.125" stop-color="#8C8C8C" />
      <stop offset="0.25" stop-color="#A4A4A4" />
      <stop offset="0.5" stop-color="#D4D4D4" />
      <stop offset="0.619193" stop-color="#D4D4D4" />
      <stop offset="1" stop-color="#7C7C7C" />
    </linearGradient>
    <radialGradient id="paint12_radial_115_113" cx="0" cy="0" r="1" gradientUnits="userSpaceOnUse"
      gradientTransform="translate(112.544 69.7709) rotate(-36.0085) scale(13.2699 12.0446)">
      <stop stop-color="#020204" />
      <stop offset="0.734482" stop-color="#020204" />
      <stop offset="1" stop-color="#5C5C5C" />
    </radialGradient>
    <radialGradient id="paint13_radial_115_113" cx="0" cy="0" r="1" gradientUnits="userSpaceOnUse"
      gradientTransform="translate(126.623 81.9365) rotate(-22.428) scale(31.5096 22.1259)">
      <stop stop-color="#D2940A" />
      <stop offset="0.751437" stop-color="#D89C08" />
      <stop offset="0.865791" stop-color="#B67E07" />
      <stop offset="1" stop-color="#946106" />
    </radialGradient>
    <linearGradient id="paint14_linear_115_113" x1="89.8685" y1="80.3767" x2="146.349" y2="79.9348"
      gradientUnits="userSpaceOnUse">
      <stop stop-color="#AD780A" />
      <stop offset="0.119729" stop-color="#D89E08" />
      <stop offset="0.255145" stop-color="#EDB80B" />
      <stop offset="0.391942" stop-color="#EBC80D" />
      <stop offset="0.527411" stop-color="#F5D838" />
      <stop offset="0.769067" stop-color="#F6D811" />
      <stop offset="1" stop-color="#F5CD31" />
    </linearGradient>
    <radialGradient id="paint15_radial_115_113" cx="0" cy="0" r="1" gradientUnits="userSpaceOnUse"
      gradientTransform="translate(120.684 69.2823) scale(3.23009 1.8842)">
      <stop stop-color="#3A2903" />
      <stop offset="0.554728" stop-color="#735208" />
      <stop offset="1" stop-color="#AC8C04" />
    </radialGradient>
    <radialGradient id="paint16_radial_115_113" cx="0" cy="0" r="1" gradientUnits="userSpaceOnUse"
      gradientTransform="translate(106.137 69.4854) scale(1.53503 1.65034)">
      <stop stop-color="#3A2903" />
      <stop offset="0.554728" stop-color="#735208" />
      <stop offset="1" stop-color="#AC8C04" />
    </radialGradient>
    <linearGradient id="paint17_linear_115_113" x1="146.317" y1="78.3198" x2="147.176" y2="82.3123"
      gradientUnits="userSpaceOnUse">
      <stop stop-color="#F5CE2D" />
      <stop offset="1" stop-color="#D79B08" />
    </linearGradient>
    <clipPath id="clip0_115_113">
      <rect width="249.14" height="297.15" fill="white" />
    </clipPath>
  </defs>
</svg>